<svg version="1.2" xmlns="http://www.w3.org/2000/svg" viewBox="0 0 919 474" width="919" height="474">
	<title>welcome (1)</title>
	<style>
		.s0 { opacity: .19;fill: #1c2122 } 
		.s1 { opacity: .83;fill: #15323f } 
		.s2 { opacity: .99;fill: #a9c9cb } 
		.s3 { opacity: 1;fill: #e0a689 } 
		.s4 { opacity: 1;fill: #3e9aa1 } 
		.s5 { opacity: 1;fill: #1b3f52 } 
		.s6 { opacity: 1;fill: #fcfcf8 } 
		.s7 { fill: #1a3e51 } 
	</style>
	<g id="Background">
		<path id="Path 0" class="s0" d="m498.3 0.6c0.3 0.3 91.1 0.6 201.7 0.7 110.7 0.1 201.3-0.1 201.3-0.5 0-0.4-90.8-0.8-201.8-0.8-110.9 0-201.5 0.2-201.2 0.6zm417.2 207.6c0.2 152.7 0.5 192.2 1.5 192.5 1 0.3 1.3-38.7 1.3-192.2 0-170.6-0.2-192.5-1.5-192.5-1.3 0-1.5 21.8-1.3 192.2zm-515 28.2c-0.4 0-0.8-4.1-0.8-9.2 0-5.1 0.4-9.2 0.8-9.2 0.4 0 0.8 4.1 0.8 9.2 0 5.1-0.4 9.2-0.8 9.2zm-233.7-3.7c-0.5 0.4-0.7 2-0.6 3.7 0.1 1.7 0.8 4.5 1.6 6.1 1.3 2.9 1.4 2.7 0.8-3.5-0.3-3.5-0.7-6.6-0.8-6.7-0.1-0.2-0.5 0-1 0.4zm228.3 15c-0.9 1.5-3.4 4.5-5.7 6.6-2.3 2-5.1 4-6.4 4.2-1.2 0.3-4 0.9-6.2 1.3-3.9 0.8-4 1-4.3 5-0.1 2.3 0.2 4.5 0.8 4.7 0.5 0.3 1-0.8 1-2.5 0-2.2 0.7-3.3 2.7-4.4 1.6-0.7 4.1-1.6 5.8-1.9 1.6-0.4 5-2.4 7.5-4.5 2.5-2.1 4.9-5.3 5.5-7 0.6-1.8 1-3.5 0.9-3.8 0-0.3-0.7 0.7-1.6 2.3zm80.7 14.4c-0.3 0.6-0.8 4.1-1.1 7.8-0.3 4.4-0.2 6.1 0.4 5.1 0.5-0.8 1.3-4.3 1.6-7.7 0.4-3.5 0.4-6.3 0.2-6.3-0.3 0-0.8 0.5-1.1 1.1zm-205.4 5.2c-0.1 0.9-1.3 3.2-2.9 4.9-1.5 1.7-2 2.9-1.2 2.7 0.8-0.3 2.3-1.7 3.3-3 1-1.3 1.6-3.3 1.4-4.4-0.4-1.6-0.5-1.6-0.6-0.2zm-5 39.7l-0.1 7c-8.5 7.4-11 9.9-11 10.3 0 0.4 1.3-0.3 2.9-1.5 1.6-1.3 4.2-3.2 5.8-4.3 1.5-1.1 3.7-2 4.8-2 1.5 0 2.1-0.9 2.5-3.8 0.3-2.4 0-4.2-0.8-5-0.7-0.6-1.5-2.4-1.7-3.9-0.3-1.5-0.9-3-1.4-3.3-0.5-0.3-1 2.6-1 6.5zm-41.4 11.8c-0.3 0.4-0.8 2.3-1.2 4.2-0.4 2-1.7 4.6-2.9 5.8-2.1 2.2-2.1 2.3-0.1 2.3 1.1 0 2.5-0.6 3.1-1.3 0.7-0.7 1.5-3.6 1.8-6.5 0.4-2.9 0.4-5.3 0.2-5.3-0.3 0-0.7 0.4-0.9 0.8zm-165.7 5.7v3.5c4.6-2.7 6.1-3.8 6.2-4.2 0.2-0.5-1-1.3-2.5-1.8-1.5-0.5-2.9-1-3.2-1-0.3 0-0.5 1.6-0.5 3.5zm191.4 6.3c-0.3 0.9-1 2.7-1.5 4-0.5 1.2-0.9 3-0.9 4 0 0.9 0.9 2.3 2 3 1.6 1 1.9 2 1.5 5.2-0.3 2.5-0.1 3.8 0.5 3.5 0.5-0.2 1.3-2.2 1.6-4.2 0.4-2.9 0.1-4.2-1.3-5.6-1.5-1.5-1.7-2.7-1.2-6.7 0.4-2.8 0.5-5 0.3-5-0.3 0-0.7 0.8-1 1.8zm-64.3 14.7c0 0.6 1.6 3.7 3.6 7 2 3.3 5.6 9 8.1 12.5 2.4 3.6 5.1 6.5 5.9 6.5 1.1 0 2.2-2 3.5-6.2 1-3.6 1.4-6.3 0.8-6.3-0.6 0-1.5 1.2-2 2.5-0.7 1.8-1.8 2.5-3.8 2.6-2.3 0-3.4-1.1-7.2-7.2-2.5-3.9-5.5-8.3-6.7-9.7-1.2-1.5-2.2-2.2-2.2-1.7zm240.6 60.1c-0.7 1.4-2.1 2.8-3.2 3.1-1.1 0.3-3 0.3-4.3-0.1-1.2-0.3-2.2-0.1-2.2 0.4 0 0.6 2.5 1 5.7 1 3.6 0 6.2 0.4 6.9 1.2 0.6 0.7 1.6 4.7 2.2 8.8 0.6 4.2 1.6 12 2.3 17.5 1 8.6 1.5 10.4 3.8 12.8 1.4 1.5 3 2.8 3.6 2.8 0.5 0-0.2-1.3-1.7-2.8-1.9-1.9-2.9-4.2-3.3-7.3-0.3-2.4-1.5-12.1-2.6-21.5-1.1-9.3-2.2-17.3-2.5-17.7-0.2-0.4-1.1-0.8-1.9-0.8-0.9 0-2.1 1.2-2.8 2.6zm-258.4 17.2c-0.4 5.3-0.8 16.8-0.8 25.4 0 9.2 0.4 16.1 1 16.7q1 1 1-17.2c0-12 0.5-19.1 1.3-20.9 1-2.3 1.8-2.8 4.9-2.8 2.1 0 4.7 0.7 5.8 1.5 1.1 0.8 2.3 1.5 2.7 1.5 0.5 0-2.4-3.1-6.2-7-3.9-3.8-7.4-7-7.9-7-0.5 0-1.3 4.4-1.8 9.8zm394.7 6c0 3.8 0.4 6 1 5.7 0.5-0.2 1-2.4 1-4.7 0-2.4-0.5-4.9-1-5.8-0.7-1-1 0.4-1 4.8zm-560.5 0.6c-1.7 1.2-1.9 2.3-1.7 9.5 0.2 7.2 0.4 8.2 2.2 8.6 1.9 0.5 2 0 2-9.5 0-5.5-0.1-10-0.3-9.9-0.1 0-1.1 0.6-2.2 1.3zm522.3 14.3c-0.3 0.3-4.3 1-8.9 1.5-4.6 0.5-11.1 1.2-14.4 1.5-3.3 0.3-6.5 1-7 1.4-0.6 0.6 2.4 0.7 7.5 0.4 4.7-0.4 9.8-1.1 11.5-1.6 1.6-0.5 5.5-0.9 8.5-0.9 3 0 6.8-0.7 8.5-1.4l3-1.4c-6.3-0.1-8.4 0.1-8.7 0.5zm-47.8 6.3c-1.1 0.7-0.4 1 2.5 0.9 2.2 0 4.9-0.4 6-0.9 1.5-0.6 0.9-0.8-2.5-0.9-2.5 0-5.2 0.4-6 0.9zm-15.5 2c-1.1 0.5-5.3 0.9-9.3 1-5 0-7.2 0.4-7.2 1.3 0 0.9 1.5 1 6.2 0.5 3.5-0.4 8.1-0.8 10.3-0.8 2.2 0.1 4.9-0.6 6-1.4 1.9-1.4 1.9-1.5-1-1.5-1.7 0.1-3.9 0.5-5 0.9z"/>
		<path id="Path 1" class="s1" d="m911.8 103.8c-0.4 13-0.5 85.6-0.4 161.2 0.2 75.7 0 138.2-0.4 139q-0.8 1.5 1 2.3c1 0.4 2.1 0.4 2.5 0 0.3-0.4 0.7-1.9 0.8-3.3 0.1-1.3 0.2-74.6 0.1-162.7-0.1-135.9-0.3-160.3-1.5-160.3-1.1 0-1.5 4.5-2.1 23.8zm-274 307.4c-2.8 0.4-20.9 0.7-40.3 0.7-34.5 0.1-35.2 0.2-35.2 2.1 0 2 0.7 2 169 2 92.9 0 169.6 0.3 170.2 0.6 0.8 0.3 1.5-0.6 2-2.3 0.3-1.5 0.5-2.9 0.5-3-0.1-0.1-58.9-0.3-130.7-0.5-71.8-0.1-132.8 0-135.5 0.4z"/>
		<path id="Path 2" class="s2" d="m910.7 135.5c0 17.6 0.2 24.6 0.3 15.5 0.2-9 0.2-23.4 0-32-0.1-8.5-0.3-1.1-0.3 16.5zm0 85c0 17.1 0.2 24.3 0.3 16 0.2-8.2 0.2-22.2 0-31-0.1-8.8-0.3-2-0.3 15zm-497 134.8c0.3 1.8 0.6 3.6 0.6 4 0 0.4 0.4 0.7 1 0.7 0.5 0 1-0.6 1-1.5 0-1 1.1-1.5 3.7-1.6 2.4-0.1 2.9-0.3 1.3-0.5-1.4-0.2-3.4-1.3-4.5-2.4-1.1-1.1-2.4-2-2.9-2-0.5 0-0.6 1.5-0.2 3.3zm23.6-1.3c-3.1 0.7-2.9 0.8 2.2 0.9 3.2 0.1 6-0.3 6.3-0.9 0.3-0.5-0.7-0.9-2.3-0.8-1.5 0-4.3 0.4-6.2 0.8zm-4.5 64c0.4 4.2 1.2 8 1.7 8.5 0.7 0.7 0.8-1.4 0.4-6.5-0.3-4.1-1.1-7.9-1.7-8.5-0.7-0.7-0.9 1.2-0.4 6.5zm127.5 7.3c0 8.4-0.1 8.8-2.8 10.8-1.5 1.1-4.1 2.2-5.7 2.4-1.7 0.3-12 1.6-23 3-11 1.5-26.5 3.5-34.5 4.5-8 1.1-19.8 2.6-26.3 3.5-6.4 0.8-14.9 1.5-18.7 1.5-6.6 0-7.2-0.2-9.5-3-2-2.4-2.5-4-2.5-8.7 0-3.6-0.5-6.5-1.5-7.8-1.3-1.8-1.4-1.6-0.9 3 0.3 2.8 0.7 6.8 0.9 9 0.3 2.6 1.4 5 3.2 6.8 2.8 2.8 2.9 2.8 12.3 2.3 5.2-0.3 13.1-1 17.5-1.6 4.4-0.5 11.4-1.4 15.5-1.9 4.1-0.5 11.1-1.4 15.5-2 4.4-0.6 11.6-1.6 16-2.2 4.4-0.6 11.4-1.4 15.5-1.9 4.1-0.5 11.4-1.3 16.2-1.7 6.3-0.6 9.4-1.3 11.5-2.9 2.7-2 2.8-2.5 3.1-11 0.1-5.1-0.2-9.3-0.8-9.9-0.7-0.7-1 1.8-1 7.8z"/>
		<path id="Path 3" fill-rule="evenodd" class="s3" d="m390.5 177.1c1 0 2 0.8 2.3 1.9 0.3 1.1 0.3 2.5 0 3-0.3 0.6-2 1.3-3.8 1.6-1.7 0.4-3.8 1.2-4.5 1.8-0.7 0.6-1.3 1.5-1.3 1.9 0.1 0.4 1.3 0.5 2.8 0.3 1.6-0.3 4-0.7 5.5-1 1.8-0.4 2.9-0.1 3.2 0.7 0.2 0.7 1.3 7.5 2.4 15.2 1.2 7.7 2.3 16.5 2.6 19.5 0.3 3.1 0.1 8.7-0.5 12.5-0.5 3.9-1.9 8.8-3 11-1.2 2.2-3.5 5.5-5.2 7.4-1.8 1.8-4.1 3.8-5.2 4.4-1.1 0.6-4.5 1.6-7.5 2.2-3.4 0.8-7.5 0.9-10.5 0.4-2.8-0.4-6.9-1.3-9.2-2-2.3-0.8-4.6-1-5-0.6-0.4 0.4-0.1 1.4 0.7 2.3 0.8 0.9 3.6 2.7 6.2 4.1 2.7 1.3 5.8 2.3 7 2.3 1.3 0 3.2 0.9 4.3 2.1 1.8 1.9 1.9 2.5 0.8 7.2-0.9 3.6-2 5.8-3.8 7-1.4 0.9-4.9 2.3-7.8 2.9-4.1 1-6.5 0.9-11.2-0.1-3.3-0.7-8-2.2-10.5-3.4-2.4-1.2-6.5-4-13.5-10.5l1.7-4.8c0.9-2.7 2.1-7.3 2.8-10.4 0.6-3 1-9.1 0.5-21.5l-4.5-0.5c-2.5-0.3-5.5-1.1-6.8-1.8-1.2-0.6-3.1-2.6-4.2-4.4-1.1-1.9-2-5-2-7.3 0-2.2 0.8-5 1.8-6.3 1.2-1.6 3.1-2.5 6.2-2.9 4-0.4 5-0.1 9.2 3.1 2.7 2 5.6 3.6 6.5 3.6 1 0 2.3-1.2 3-2.7 0.6-1.5 1.4-4.6 1.7-6.8 0.3-2.2 0.2-7.3-0.4-11.5-0.5-4.1-1.2-8.7-2-13l12.7-0.4c7.1-0.2 14.8-0.8 17.3-1.4 2.5-0.6 6.3-1.5 8.5-2.1 2.2-0.5 5.6-1.4 7.5-1.9 1.9-0.5 4.3-1 5.2-1.1zm-244.5 33c0.4 0 3.3 1.9 6.3 4.1 3 2.3 7 5.6 8.8 7.3 1.8 1.7 3.2 3.4 3.2 3.8 0 0.4-0.9 0.7-2 0.7-1.1 0-2.7 0.3-3.5 0.5-0.8 0.3-1.5 1.2-1.5 2 0 1.1 1 1.5 3.2 1.5 1.8 0 3.9 0.6 4.6 1.3 0.7 0.7 1.2 2.7 1.2 4.5 0 1.8 1.2 6 2.7 9.5 2.5 5.7 2.8 7.3 2.8 18.7 0 11.7-0.2 12.9-2.8 18.5-1.6 3.3-4 7.3-5.5 8.9-1.5 1.5-4.4 3.7-6.5 4.7-2.9 1.5-5.8 1.9-13.2 1.9-7.3 0-10.5-0.4-14-2-2.5-1.1-4.7-2-5-2-0.3 0-0.5 0.8-0.5 1.8-0.1 0.9 0.7 2.5 1.7 3.4 1 0.9 4.6 3 8 4.7 6.1 3.1 6.3 3.2 6.3 7.1 0 2.3 0.9 5.5 2 7.3 1.1 1.8 2 4 2 5 0 0.9-1.5 3.3-3.3 5.3-2.2 2.3-4.7 3.8-7.7 4.5-2.5 0.6-6.8 0.8-9.5 0.4-2.8-0.4-7-1.6-9.5-2.7-2.5-1-6.6-3.5-9.3-5.3-2.6-1.9-4.7-4.1-4.7-5 0-0.8 1.1-2.1 2.5-3 1.4-0.8 3.6-3.3 5-5.5 2.3-3.7 2.5-4.9 2.4-15.7 0-6.5-0.6-14.2-1.3-17.3-1.1-4.8-1.6-5.5-4.2-6.1-1.6-0.4-4.1-0.9-5.7-1.3-1.5-0.3-3.9-1.6-5.5-2.9-1.5-1.3-3.3-4.3-4.1-6.8-1-3.4-1.1-5.2-0.2-8.1 0.7-2.5 2.2-4.5 4.3-5.8 1.8-1.1 4.1-2 5-2 1 0 3.7 1.8 6 4 2.4 2.2 4.9 4 5.5 4 0.7 0 3.2-1.3 5.5-2.9 2.4-1.6 8.2-6.9 12.9-11.7 4.7-4.9 9.7-10.9 11.1-13.4 1.5-2.4 3.2-6.5 3.8-9 0.7-2.4 1.4-5 1.6-5.7 0.2-0.7 0.7-1.3 1.1-1.2zm362.1 11.9c1.5 0 3.3 0.6 4 1.3 0.7 0.7 1.2 3 1.2 5.2 0 2.2-0.6 4.9-1.5 6-1.3 1.8-1.4 1.8-1.5 0.3 0-1-0.6-1.8-1.3-1.8-0.6 0-3.9 1.8-7.2 3.9-3.3 2.2-6.9 4.9-8 6.1-1.7 1.9-1.8 2.3-0.5 3 0.8 0.5 2.1 0.7 2.7 0.4 0.7-0.2 2.2 1.1 3.3 2.9 1.1 1.8 2 4 2 5 0 0.9-1.1 4.2-2.5 7.2-1.4 3.1-2.5 6.2-2.5 7 0 0.9 0.8 1.5 1.7 1.5 1.1 0 2.6-1.8 4-4.7 1.3-2.6 2.3-5.6 2.3-6.5 0-1.6 0.2-1.6 2.7 0.3 2.4 1.7 4.3 2 12 2 7.6-0.1 9.3 0.2 9.3 1.4 0 0.9-0.4 2.3-0.9 3.3-0.5 0.9-1.6 3.3-2.4 5.2-0.8 2-3.8 5.6-6.7 8-2.9 2.5-5.8 5.9-6.6 7.5-0.8 1.7-1.4 3.6-1.4 4.3 0 0.7-0.8 1.2-1.8 1.2-0.9 0-8.9-2.4-17.7-5.4-15.8-5.4-16-5.5-15.8-8.3 0.1-1.5 0.9-6.8 1.7-11.8 0.8-4.9 1.9-10.5 2.4-12.5 0.5-1.9 1.8-5.6 2.8-8.1 1-2.6 3.7-6.6 5.9-9 2.3-2.4 6.2-6.3 8.8-8.6 2.5-2.4 5.3-4.3 6.2-4.3 0.8 0 1.7-0.4 2-1 0.3-0.5 1.8-1 3.3-1zm-4.2 18c0.2 0 0.4 2.2 0.4 9.5l-1.9-3c-1.7-2.7-1.7-3.1-0.3-4.7 0.8-1 1.6-1.8 1.8-1.8zm-235.9 26.1c1.4 0 2.3 0.5 2.3 1.4 0 0.9-2.9 5-6.5 9.3-5.5 6.4-7.7 8.3-13.5 11-4.1 1.9-7 3.8-7 4.7 0 0.9 0.3 1.5 0.7 1.5 0.5 0 3.6-1.4 7-3.2 4.7-2.5 6.7-3 7.9-2.3 0.9 0.6 1.8 1.6 2 2.3 0.2 0.7-2.8 3.4-6.6 6-3.9 2.6-7.1 5.1-7 5.5 0 0.4 0.6 0.7 1.2 0.7 0.7 0 3.5-1.3 6.3-3 2.7-1.6 5.3-2.9 5.7-3 0.5 0 0.8 0.8 0.8 1.8 0 0.9-1.2 2.9-2.7 4.3-1.6 1.5-3.6 2.9-4.6 3.3-0.9 0.3-1.9 1.3-2.2 2.1-0.3 0.9 0.5 2.9 1.7 4.6 1.6 2.2 2.6 2.8 3.3 2q1-1.1-0.3-3.1c-0.6-1.1-1-2.4-0.7-3 0.3-0.5 1.2-1 2-1 0.8 0 2.6-1.3 4-3 1.4-1.6 2.7-3 3-3 0.3 0 0.5 2.7 0.5 6 0 6 0 6-5.3 10.8-3 2.6-6.5 6.3-7.9 8.2-1.3 2-3.1 5.5-3.9 7.8-0.8 2.6-2 4.3-2.9 4.2-0.8 0-5.6-1.6-10.5-3.6-5-2-9.5-3.9-10-4.4-0.6-0.5-0.9-2.1-0.7-3.7 0.2-1.5 1.2-7.2 2.3-12.5 1-5.4 3.2-12.6 4.7-16 1.5-3.5 4.4-8.1 6.4-10.3 1.9-2.2 8.2-7.6 13.9-12 5.7-4.4 11.3-8.5 12.4-9.2 1.1-0.6 3-1.2 4.2-1.2zm146.3 94.1c0.3-0.1 2.1 0.5 4 1.5 1.9 0.9 5.7 3.3 8.4 5.2 2.7 2 6 5.3 7.3 7.4 1.2 2 2.3 4.7 2.3 6 0 1.2-0.9 3.7-2 5.5-1.6 2.6-2 5.1-2.1 13.5-0.1 5.6-0.4 8.9-0.8 7.2-0.3-1.7-1.3-3.1-2.4-3.2-1-0.2-2.2 0.8-3 2.3-0.6 1.3-1.9 2.7-2.7 3-0.8 0.3-5.3 0-10-0.6-8.2-1-8.6-1-12.5 1.4-2.2 1.3-5.4 3.9-7 5.6-1.7 1.7-4.4 3.8-6 4.5-1.7 0.7-5 1.8-7.5 2.5-2.5 0.7-5.6 1-7 0.9-2.2-0.3-2.6-1-3.2-5.4-0.4-2.7-1.3-9.5-2-15.1-1.1-8.8-1.1-10.3 0.2-11.8 0.9-1 3-1.6 5-1.6 1.9 0 4.6-0.6 5.9-1.2 1.3-0.7 3.5-3.5 5-6.3 1.4-2.7 4.9-7.4 7.7-10.5 3.4-3.7 6.8-6.2 10.5-7.7 3-1.2 6.7-2.4 8.4-2.6 1.6-0.2 3.2-0.4 3.5-0.5zm-278 78.6c2.5 0.2 5.6 1.3 7 2.3 1.4 1 4.9 4.2 7.8 7.1 3.5 3.4 5.2 6 5 7.2-0.2 1.1-0.8 2.1-1.3 2.3-0.6 0.2-5.4-2.6-10.8-6.2-5.5-3.6-10.8-6.5-12.2-6.5-1.4 0-2.5 0.4-2.5 0.8 0 0.4 5.4 4.2 12 8.5 10.9 7 12 8 12 10.7 0 1.7-0.7 3.4-1.5 3.8-1.1 0.5-2.6-0.3-4.8-2.4-1.8-1.8-6.9-5.5-11.5-8.3-4.5-2.8-8.9-5.1-9.7-5.1-0.8 0-1.5 0.4-1.5 0.8 0 0.4 2.6 2.3 5.7 4.2 3.2 1.9 7.7 4.7 10 6.2 2.4 1.6 4.3 3.3 4.3 3.8 0 0.6-1.7 1-3.8 1-2 0-4.8-0.7-6.2-1.7-1.4-1-4.5-2.8-7-4-2.5-1.3-5.4-2.3-6.5-2.3-1.8-0.1-1.9 0.1-0.5 1.6 0.8 0.9 3 2.3 4.7 3 1.8 0.8 3.3 1.9 3.3 2.4 0 0.7-6.8 0.9-37.5 0.5l-0.3-3.5c-0.2-1.9 0.1-4.6 0.6-6 0.5-1.3 1.5-4.5 2.3-7 0.7-2.4 1.7-5.1 2.3-5.9 0.8-1 2.6-1.2 7.3-0.7 5.9 0.6 6.7 0.4 12.5-2.8 3.9-2.1 8.2-3.5 11.3-3.8 2.7-0.3 7-0.3 9.5 0z"/>
		<path id="Path 4" fill-rule="evenodd" class="s4" d="m642.3 79v331.5l-6.2 0.8c-3.5 0.4-21.5 0.7-73.8 0.7v3c0 1.7-0.3 2.9-0.8 2.6-0.4-0.2-1.3-4.9-2-10.5-0.6-5.5-1.7-14.5-2.2-19.8-0.5-5.4-1.5-14.9-2.1-21.3-0.6-6.3-1.5-13.2-2-15.2-0.5-2.2-2.2-4.8-3.9-6.3-1.7-1.3-4.2-2.5-5.8-2.5-1.5 0-6.5 0.5-11.2 1-4.7 0.6-12.1 1.5-16.5 2.1-4.4 0.5-11.3 1.2-22.5 1.9l5.4-15.2c3-8.4 7.1-20.1 9.2-26 3.8-10.6 3.9-10.7 1.9-12.2-1.1-0.8-1.4-1.5-0.8-1.5 0.7-0.1 1.3-0.6 1.3-1.3 0-0.7 0.6-2.6 1.4-4.3 0.8-1.6 3.7-5 6.6-7.5 2.9-2.4 5.8-5.8 6.5-7.5 0.7-1.6 1.9-4.4 2.6-6.2 0.9-2.1 2.3-3.4 3.9-3.7 1.4-0.3 16.9-1 34.5-1.5 17.6-0.6 35.1-1.3 39-1.6 5.8-0.4 7.4-0.9 9.5-3.1 2.5-2.5 2.5-2.6 1.7-15.2-0.4-7-1.1-19.9-1.6-28.7-0.5-9.7-1.4-17.1-2.3-19-0.7-1.6-2.5-3.5-3.8-4.1-1.8-0.8-5.9-0.9-14.5-0.2-6.6 0.5-28.4 1.1-48.5 1.4-25 0.4-37.4 0.9-39.4 1.7-1.6 0.7-3.5 2.5-4.2 4-1 1.9-1.4 7-1.6 30.2l-10.3 8.9-0.3-76.4c-0.1-42.1 0-77 0.3-77.7 0.3-1 16.6-1.3 152.5-1.3zm170.5 0.5v331l-165.5 0.5-0.2-165.3c-0.1-90.9 0.2-165.6 0.7-166 0.5-0.4 37.8-0.6 165-0.2zm99 0l0.5 24.5h-76.5l-2.2 2.3c-1.1 1.2-2.6 3.8-3.1 5.7-0.6 2.1-0.7 14.4-0.4 31 0.6 26.9 0.6 27.6 5.2 33h77v14l-3.8 0.7c-2 0.3-19 0.4-37.7 0-32-0.6-34.2-0.5-36.5 1.2-1.4 1-3.1 3.8-3.8 6.2-1.1 3.5-1.2 9.7-0.7 28.9 0.6 17.5 1.2 25.3 2.1 27.3 0.8 1.5 2.4 3.4 3.6 4.2 1.9 1.2 8.6 1.5 76.8 1.5v7c0 6.9-0.1 7-2.8 7.5-1.5 0.2-18.5 0.1-72.7-0.8l-2.8 2.9c-1.7 1.8-3 4.5-3.3 6.9-0.3 2.2-0.6 14.6-0.7 27.6-0.2 20.9 0 23.8 1.5 26.2 1 1.5 3 3.2 4.5 3.8 1.8 0.7 15.5 0.9 76.3 0.4v29.8c0 24.4-0.3 30.3-1.5 32.7-0.8 1.7-2.9 3.9-4.5 5-2.9 2-4.5 2-89.5 1.5l-0.3-164.5c-0.1-90.4 0-165 0.3-165.7 0.4-1 10.5-1.2 95-0.8zm-764.3 238c2.9 0.4 7.5 1.6 10.3 2.6 2.7 1.1 5.9 2.8 7 3.9 1.1 1.1 3.6 2.8 5.5 3.8 1.9 1.1 5.5 4.4 8 7.5 2.5 3 6 8.4 7.8 11.9 1.9 3.5 6.2 10.5 9.5 15.6 3.7 5.5 6.8 9.2 7.6 9 0.8-0.1 2-2.5 2.8-5.3 0.7-2.7 2.7-9.5 4.4-15 1.7-5.5 3.9-12.2 4.9-15 1.7-4.2 2.5-5.1 5.2-5.6 1.8-0.4 3.7-0.3 4.3 0.2 0.5 0.4 5 2.3 10 4.3 4.9 2 9.6 3.6 10.2 3.6 0.7 0 2.5 1 3.9 2.3 2.2 1.9 2.5 2.8 2 5.7-0.3 2-1.3 5.8-2.1 8.5-0.8 2.8-3 10.4-4.9 17-1.9 6.6-4.9 16.8-6.6 22.5-1.7 5.8-4.3 13.5-5.7 17-1.7 4.5-4.2 8.2-7.7 11.8-3.5 3.6-6.9 5.9-10.6 7.3-3.9 1.5-7.1 2-11 1.7-3.3-0.2-8.1-1.5-12-3.4-3.9-1.8-8.7-5.2-12.1-8.4-3-3-5.8-6.8-6.3-8.5-0.4-1.6-0.3-4.1 0.2-5.5 0.6-1.3 1.5-5.6 2.2-9.5 0.8-4.3 1-10.6 0.6-16.5-0.3-5.2-0.8-11.3-1.1-13.5-0.3-2.2-1.2-4.6-2.1-5.5-1.2-1.2-1.7-1.2-2.7-0.2-0.9 1-0.9 2.5 0 7 0.7 3.2 1.3 10.6 1.3 16.5 0 5.9-0.4 11.7-0.9 13-0.5 1.2-1.3 9.9-1.7 19.2-0.5 9.4-0.9 22.4-0.9 29 0 6.6 0.3 14.2 1.5 21.5h-15v-3.2c0-1.8 0.7-4.6 1.5-6.3 0.9-1.6 1.6-3.4 1.6-4 0-0.5-3.3-4.1-7.3-8-5.3-5.1-8.3-7.2-10.8-7.7-1.9-0.3-6.4-0.3-10 0-4.7 0.4-8.2 1.5-12.8 3.9-5.7 3.1-6.7 3.3-12.5 2.7-4.7-0.5-6.5-0.3-7.3 0.7-0.6 0.8-1.6 3.5-2.3 5.9-0.8 2.5-1.8 5.7-2.3 7-0.5 1.4-0.8 4.1-0.3 9.5h-28.2c-18 0-28.4-0.3-28.7-1-0.2-0.5-2.1-1.5-4.2-2.2-2.2-0.6-5.5-1.4-7.4-1.8-1.9-0.3-5.6-2.1-8.3-4-2.6-1.9-5.8-5.3-7.2-7.5-2.2-3.5-2.5-5-2.5-13.7 0-5.7 0.6-11.7 1.4-14.3 0.8-2.4 3.1-9 5.1-14.5 2-5.5 4.3-11.8 5.2-14 0.8-2.2 2.4-6 3.5-8.5 1.1-2.4 4.6-9.9 7.7-16.5 3.1-6.6 7.9-15.3 10.5-19.5 2.7-4.1 8.7-11.3 13.5-16 6.1-6.1 10.6-9.5 15.6-12 6.9-3.4 7-3.5 32-3.2l3.6 3.4c2 1.8 5.9 4.5 8.5 6 2.7 1.5 7.6 3.3 10.9 3.9 4.3 0.8 7.4 0.8 11 0.1 3.8-0.8 5.8-2 8.4-4.9 2.2-2.5 3.2-4.5 2.8-5.8-0.2-1.1-0.7-2.8-1.1-3.9-0.6-1.7-0.2-1.8 4.6-1.1zm-93.7 103.4c-1.5 3.3-1.8 4.7-0.9 6 0.7 1 2.8 1.7 5.5 1.9l4.4 0.3c1.2-9.7 1.5-13.6 1.5-14.8 0-1.7-0.6-2.3-2.4-2.3-1.4 0-3.3 1.1-4.3 2.3-1 1.3-2.7 4.3-3.8 6.6z"/>
		<path id="Path 5" fill-rule="evenodd" class="s5" d="m699.8 1.2c154.8 0 202.6 0.2 204.6 1.1 1.4 0.7 4.4 2.8 6.7 4.7 2.4 2.1 4.1 4.5 4.2 6 0.1 1.4 0.2 16.9 0 66.5h-98.5l-0.3 165.3c-0.2 146.1-0.4 165.2-1.7 165.2-1.3 0-1.5-19.1-2-330.5h-165l-0.5 330.5h-5v-331l-152.5 0.5-0.5 156-5.1 5 0.4-114c0.3-62.7 0.8-114.9 1.1-116 0.3-1.1 2.1-3.1 3.9-4.5 1.7-1.3 4.3-3 5.7-3.6 1.8-0.8 59.4-1.1 204.5-1.2zm-322.9 136.1c4 0.1 6.8 0.8 8 1.9 1.1 0.9 3 3.7 4.4 6.3 1.8 3.4 3.1 4.6 4.7 4.6 1.3-0.1 3.8 0.7 5.5 1.6 1.8 0.9 3.4 1.6 3.5 1.7 0.2 0.1 0.7 1.9 1.2 4.1 0.7 3.1 0.5 5-0.8 8.2-0.9 2.4-2.6 4.7-3.9 5.3-1.2 0.6-2.2 1.5-2.2 2 0 0.6-0.6 1-1.3 1.1-0.6 0-1.9 0.6-2.7 1.3-0.8 0.8-3.8 1.9-6.5 2.6-2.8 0.6-6.8 1.6-9 2.1-2.2 0.6-6 1.5-8.5 2.1-2.5 0.6-10.2 1.2-30 1.8l0.5 2.8c0.3 1.5 1 6.1 1.5 10.2 0.6 4.2 0.7 9.3 0.4 11.5-0.3 2.2-1.1 5.3-1.7 6.8-0.7 1.5-2 2.7-3 2.7-0.9 0-3.8-1.6-6.5-3.6-4.2-3.2-5.2-3.5-9.2-3.1-3.1 0.4-5 1.3-6.2 2.9-1 1.3-1.8 4.1-1.8 6.3 0 2.3 0.9 5.4 2 7.3 1.1 1.8 3 3.8 4.2 4.4 1.3 0.7 4.3 1.5 11.3 2.3l0.2 5.8c0.2 3.1 0.2 5.7 0 5.8-0.1 0-1.3-0.6-2.7-1.3-1.4-0.7-4.3-2.6-6.5-4.3-2.2-1.6-4.6-3.5-5.3-4.2-0.6-0.7-1.2-1.6-1.2-2 0.1-0.4-0.7-1.4-1.6-2.3-0.9-0.8-2.2-2.8-2.9-4.5-0.7-1.6-1.9-4.8-2.6-7-0.6-2.2-1.5-4.4-1.9-5-0.4-0.5-1.5-3.7-2.5-7-1.5-4.8-1.7-7.8-1.2-15.7 0.5-6.3 0.3-10.6-0.4-12-0.8-1.7-0.8-3.1 0.2-5.3 0.6-1.6 2.2-4.3 3.4-6 1.4-2 3.7-3.4 6.8-4.2 3.2-0.9 4.8-1.9 5.3-3.5 0.4-1.3 2.4-4 4.3-6.2 2-2.1 6.3-5.1 9.6-6.7 5.6-2.6 6.8-2.8 27.6-2.4l3.6-3.9c2-2.1 4.5-4.3 5.7-4.7 1.1-0.5 4.9-0.7 8.2-0.6zm16.5 46.2c0.5 0.6 0.9 1.3 0.9 1.5 0 0.3-1.8 1.1-4 1.8-2.2 0.7-4.7 1.2-5.5 1.2-0.8 0-1.5-0.4-1.5-1 0-0.5 0.6-1.3 1.2-1.7 0.7-0.4 2.8-1.2 4.7-1.8 2.3-0.8 3.6-0.8 4.2 0zm-274.4 6.6c4 0 9.7 0.4 12.5 1 2.9 0.7 5.9 1.7 6.7 2.3 0.8 0.6 5.1 1.4 9.5 1.7 5.7 0.4 9 1.2 11.1 2.6 1.6 1.1 3.8 2.3 4.7 2.7 1 0.3 3.1 3 4.8 5.9 2.5 4.5 2.9 6.3 3 13.2 0 6.6-0.3 8.5-2 10.8-1.8 2.5-2.2 2.6-3.8 1.3-0.9-0.9-3.2-1.5-5-1.5-2.2-0.1-3.2-0.6-3.2-1.6 0-0.8 0.7-1.7 1.5-2 0.8-0.2 2.4-0.5 3.5-0.5 1.1 0 2-0.3 2-0.7 0-0.4-1.4-2.1-3.2-3.8-1.8-1.7-5.9-5.1-9.1-7.5-3.5-2.7-6.1-4.1-6.6-3.5-0.4 0.6-1.3 3.3-2 6-0.7 2.8-2.4 7.1-3.8 9.5-1.5 2.5-6.5 8.5-11.2 13.4-4.7 4.8-10.5 10.1-12.9 11.7-2.3 1.6-4.8 2.9-5.5 2.9-0.6 0-3.1-1.8-5.5-4-2.3-2.2-5-4-6-4-0.9 0-3.2 0.9-5 2-2.1 1.3-3.6 3.3-4.3 5.8-0.9 2.9-0.8 4.7 0.2 8.1 0.8 2.5 2.6 5.5 4.1 6.8 1.6 1.3 4 2.6 5.5 2.9 1.6 0.4 4.1 0.9 5.7 1.3 2.6 0.6 3.1 1.3 4.2 6.1 0.7 3.1 1.3 10.8 1.3 17.3 0.1 10.8-0.1 12-2.4 15.7-1.4 2.2-3.7 4.8-5.2 5.8-2.3 1.4-5.1 1.7-15.8 1.7-11.1 0-13.7 0.3-17.5 2.1-2.8 1.3-5.1 1.8-6 1.3-0.8-0.4-3.9-1.8-6.9-3.1-3.4-1.4-7-4-9.5-6.8-2.3-2.5-4.5-6.1-4.9-8-0.4-1.9-0.7-6.1-0.7-9.2 0-3.2 0.7-7.9 1.6-10.5 0.9-2.6 3-6.8 4.7-9.3 1.6-2.4 4.7-6.3 6.7-8.5 2.1-2.2 4.8-5.7 5.9-7.7 1.2-2.1 3-7.1 4.1-11.3 1.1-4.1 2-8.7 2-10.2 0-1.5 0.7-5 1.5-7.8 0.9-2.7 3.2-8.3 5.3-12.4 2.6-5.2 5.6-9.1 10.2-13.5 3.6-3.3 9.2-7.4 12.5-9 3.3-1.6 8.2-3.5 11-4.1 2.7-0.7 8.3-1.3 12.2-1.4zm390 42.9c0.7 0 1.3 0.7 1.3 1.5 0 0.9-2.3 3.1-10 8.5l2 3.3c1.3 2.2 2 5 2 8.7 0 3.6-0.8 7.1-2.3 10.3-1.4 2.9-2.9 4.7-4 4.7-0.9 0-1.7-0.6-1.7-1.5 0-0.8 1.1-3.9 2.5-7 1.4-3 2.5-6.3 2.5-7.2 0-1-0.9-3.2-2-5-1.1-1.8-2.6-3.1-3.3-2.9-0.6 0.3-1.9 0.1-2.7-0.4-1.3-0.7-1.2-1.1 0.5-3 1.1-1.2 4.7-3.9 8-6.1 3.3-2.1 6.6-3.9 7.2-3.9zm-153.7 24c1.1 0 3.7 0.7 5.7 1.6 2.1 0.8 5.1 1.4 6.8 1.4 1.6 0 3.5 0.5 4.1 1.2 0.5 0.7 0.8 2.7 0.4 4.3-0.3 1.9-0.8 2.6-1.3 1.8-0.4-0.7-1.8-1.3-3.2-1.3-1.4 0-4.4-0.9-6.8-2.1-2.3-1.2-5-2.8-6-3.7-1-0.9-1.8-2-1.7-2.4 0-0.4 0.9-0.8 2-0.8zm-182.3 2c0.2 0 1.2 2.6 2.1 5.8 0.9 3.1 3.2 8.2 5 11.2 1.9 3.1 4 7.1 4.8 9 1.1 2.9 1.2 5.2 0.4 12-0.7 5.7-1.8 9.8-3.4 12.5-1.3 2.2-3.7 5.6-5.2 7.4-1.6 1.9-4.1 4-5.7 4.8-2 1-2.6 1.9-2.2 3.3 0.3 1.1 0.2 2-0.3 2.1-0.4 0-1.6-1-2.7-2.2-1.1-1.2-4-3.1-6.5-4.2-2.5-1.1-7.7-2.5-18.5-4.3l-0.3-4.7c-0.2-4.7-0.2-4.7-6.5-7.8-3.4-1.7-7-3.8-8-4.7-1-0.9-1.8-2.5-1.7-3.4 0-1 0.2-1.8 0.5-1.8 0.3 0 2.5 0.9 5 2 3.5 1.6 6.7 2 14 2 7.4 0 10.3-0.4 13.2-1.9 2.1-1 5-3.2 6.5-4.7 1.5-1.6 3.9-5.6 5.4-8.9 2.1-4.5 2.8-8 3.2-14.7 0.2-4.8 0.6-8.8 0.9-8.8zm150.9 10.2c1.2 0.1 2.2 0.7 2.3 1.5 0 0.7 2.2 3.1 4.8 5.4 2.7 2.2 6.6 4.9 8.8 5.9 2.2 1 6.7 2.4 10 3.1 4.7 1 7.1 1.1 11.2 0.1 2.9-0.6 6.4-2 7.8-2.9 1.7-1.2 2.9-3.4 3.6-6.8 0.7-2.7 1.3-5.3 1.5-5.7 0.2-0.4 1-0.4 1.6 0.1 0.7 0.4 3.5 0.7 6.3 0.6 2.7-0.1 5.4 0.2 6 0.6 0.5 0.4 3.1 1 5.7 1.3 2.7 0.3 5 1.1 5.3 1.6 0.3 0.6 1.7 1 3.2 1 1.6 0 4 0.9 5.5 2 1.6 1.1 3.5 1.8 4.3 1.5 0.8-0.2 2.1 0.3 2.7 1.2 0.7 0.9 2.6 2.3 4.3 3 1.6 0.8 4.1 2.1 5.5 2.9 1.4 0.7 2.9 2 3.5 2.8 0.5 0.7 2 1.6 3.2 2 1.3 0.3 3 1.8 3.8 3.1 0.8 1.4 1.9 2.3 2.5 2 0.5-0.2 2 0.9 3.2 2.5 1.3 1.7 3.1 3.2 4 3.5 1 0.3 2.2 1.5 2.6 2.8 0.5 1.2 2.3 3.5 4 5 1.8 1.5 3.9 2.7 4.7 2.7 0.8 0 1.5-0.5 1.5-1.2 0-0.7 1.3-3.4 3-6 1.6-2.6 3-5.6 3-6.5 0-1 0.7-2.7 1.5-3.8 0.9-1.1 1.5-2.6 1.5-3.5-0.1-0.8 0.8-2.7 2-4.2 1.1-1.5 1.9-3.5 1.7-4.4-0.1-0.9 0.6-2.1 1.5-2.7 1.4-0.9 2-0.8 3 0.4 0.7 0.8 8.5 3.9 17.3 6.8 8.8 3 16.9 6 18 6.8 2 1.4 1.9 1.5-1.9 12.1-2.1 5.9-6.1 17.3-9 25.4-2.8 8.1-5.6 15.2-6.1 15.7-0.6 0.6-5.1 1.5-10 2.1-5 0.6-17.1 1.9-27 3-9.9 1.1-22.1 2.5-27.2 3.3-9 1.2-9.2 1.2-11.5-1-1.3-1.2-2.6-2.2-3.1-2.3-0.4 0-0.6 1.9-0.5 4.3 0.3 4 0.2 4.2-2.7 4.5-1.7 0.2-5.4 1.3-8.4 2.5-3.7 1.5-7.1 4-10.5 7.7-2.8 3.1-6.3 7.8-7.7 10.5-1.5 2.8-3.7 5.6-5 6.3-1.3 0.6-4 1.2-5.9 1.2-2 0-4.1 0.6-5 1.6-1.3 1.5-1.3 3-0.2 11.8 0.7 5.6 1.6 12.4 2 15.1 0.6 4.4 1 5.1 3.2 5.4 1.4 0.1 4.5-0.2 7-0.9 2.5-0.7 5.8-1.8 7.5-2.5 1.6-0.7 4.3-2.8 6-4.5 1.6-1.7 4.8-4.3 7-5.6 3.4-2.1 4.8-2.4 15-1.2l0.5 65.8h-201c-177.3 0-201.2-0.1-202.5-1.5-0.8-0.8-1.5-1.7-1.5-2 0-0.2 0.2-1.1 0.5-2 0.3-1 1.9-1.5 5-1.5 3.1 0 4.6-0.4 5-1.5 0.3-0.8 1.5-1.5 2.7-1.5 1.3 0 4 0.7 6 1.5 2.1 0.8 3.8 1.9 3.8 2.3 0 0.4 21.1 0.8 47 1 30.8 0.1 47-0.1 47-0.8 0-0.5-1.5-1.6-3.3-2.4-1.7-0.7-3.9-2.1-4.7-3-1.4-1.5-1.3-1.7 0.5-1.6 1.1 0 4 1 6.5 2.3 2.5 1.2 5.6 3 7 4 1.4 1 4.2 1.7 6.2 1.7 2.1 0 3.8-0.4 3.8-1 0-0.5-1.9-2.2-4.3-3.8-2.3-1.5-6.8-4.3-10-6.2-3.1-1.9-5.7-3.8-5.7-4.2 0-0.4 0.7-0.8 1.5-0.8 0.8 0 5.2 2.3 9.7 5.1 4.6 2.8 9.6 6.3 11.1 7.8 2.7 2.5 3.2 2.6 12 2.3 5.1-0.2 9.3-0.8 9.4-1.3 0.2-0.5 22.8-0.9 106.3-0.9l-0.1-3.7c0-2.3 0.7-4.4 1.7-5.3 1.3-1.2 1.5-2.7 1-8.7-0.4-4.5-0.2-7.5 0.4-7.8 0.5-0.2 1-0.8 1-1.2 0-0.4-1.5-1.4-3.3-2.1-1.7-0.7-4-1.7-5-2.2-0.9-0.6-2-0.8-2.5-0.5-0.4 0.3-1.6-0.4-2.7-1.5-1.1-1.1-2.8-2-3.8-2-1 0-3-2-4.7-4.7-1.7-2.6-3.1-5.5-3.3-6.4-0.1-0.8-0.8-2.3-1.5-3.2-0.7-1.1-0.8-1.9-0.2-2.2 0.5-0.2 1-2.5 1-5 0-2.4-0.6-5.6-1.3-6.9-1-2-0.9-2.8 0.3-4.2 0.8-0.9 1.6-4 1.7-6.8 0.1-2.8 1-8.2 1.9-12.1 0.9-3.8 1.8-8.1 1.9-9.5 0-1.3 0.4-2.9 0.7-3.5 0.3-0.5 2.4-10.4 4.7-22 2.3-11.5 4.7-22.1 5.3-23.5 0.6-1.3 1.4-3.3 1.9-4.2 0.5-1 0.9-2.7 0.9-3.8 0-1.1 0.8-3.4 1.9-5.2 1-1.8 2.9-5.1 4.2-7.4 1.3-2.3 6.2-7.6 10.9-11.9 4.7-4.2 8.8-8.3 9.1-9.1 0.3-0.8 1.4-1.4 2.5-1.4 1 0 3.4-0.9 5.1-2 1.8-1.1 4.1-2 5-1.9 1 0 2.3-0.7 2.8-1.6 0.6-0.9 1.8-1.3 2.8-1 0.9 0.3 2.9-0.1 4.4-0.9 1.6-0.8 3.7-1.4 4.9-1.4zm-65.2 14.2l3.3 3.1c3 2.8 3.3 3.5 3.3 8.8 0 5.1-0.4 6.1-3.3 9.3-1.7 1.9-3.8 3.5-4.5 3.5-0.6-0.1-1.4 0.4-1.7 0.9-0.3 0.6 0.1 1.9 0.7 3q1.3 2 0.3 3.1c-0.7 0.8-1.7 0.2-3.3-2-1.2-1.7-2-3.7-1.7-4.6 0.3-0.8 1.3-1.8 2.2-2.1 1-0.4 3-1.8 4.6-3.3 1.5-1.4 2.7-3.4 2.7-4.3 0-1-0.3-1.8-0.8-1.8-0.4 0.1-3 1.4-5.7 3-2.8 1.7-5.6 3-6.3 3-0.6 0-1.2-0.3-1.2-0.7-0.1-0.4 3.1-2.9 7-5.5 3.8-2.6 6.8-5.3 6.6-6-0.2-0.7-1.1-1.7-2-2.3-1.2-0.7-3.2-0.2-7.9 2.3-3.4 1.8-6.5 3.2-7 3.2-0.4 0-0.7-0.6-0.7-1.5 0-0.8 3.2-3.1 7.7-5.3zm-88.1 77.9c0.7 0.2 1.5 1.1 1.8 1.8 0.4 0.8 1.3 4.6 1.9 8.4 0.7 4.2 1 10.9 0.7 16.5-0.4 5.2-1.1 11.8-1.8 14.5-0.6 2.8-1.2 6.5-1.3 8.3-0.1 1.8-0.3 3.2-0.6 3.2-0.3 0-1.2-0.4-2-1-1.1-0.6-1.5-2.4-1.3-6.2 0.1-2.9 0.6-6.5 1.2-8 0.6-1.5 1.1-7.7 1.1-13.8 0-6-0.5-13.1-1.2-15.7-0.6-2.6-0.8-5.6-0.4-6.6 0.4-1 1.3-1.6 1.9-1.4zm740.4 44.8c0.7-0.1 1.6 0.5 1.9 1.2 0.3 0.7-0.9 2.7-2.8 4.5-1.8 1.8-4.1 3.3-5.1 3.2-1.3 0-1.6-0.5-1.1-2.2 0.3-1.3 1.8-3.3 3.2-4.5 1.5-1.2 3.2-2.2 3.9-2.2zm-779.2 38.9c1.4 0 6.7 2.9 12.2 6.6 5.4 3.5 9.8 7.1 9.8 8 0 0.8-0.5 1.5-1 1.5-0.6 0.1-6.1-3.2-12.3-7.2-6.1-4.1-11.2-7.7-11.2-8.1 0-0.4 1.1-0.8 2.5-0.8z"/>
		<path id="Path 5 copy" fill-rule="evenodd" class="s5" d="m699.8 1.2c154.8 0 202.6 0.2 204.6 1.1 1.4 0.7 4.4 2.8 6.7 4.7 2.4 2.1 4.1 4.5 4.2 6 0.1 1.4 0.2 16.9 0 66.5h-98.5l-0.3 165.3c-0.2 146.1-0.4 165.2-1.7 165.2-1.3 0-1.5-19.1-2-330.5h-165l-0.5 330.5h-5v-331l-152.5 0.5-0.5 156-5.1 5 0.4-114c0.3-62.7 0.8-114.9 1.1-116 0.3-1.1 2.1-3.1 3.9-4.5 1.7-1.3 4.3-3 5.7-3.6 1.8-0.8 59.4-1.1 204.5-1.2zm-322.9 136.1c4 0.1 6.8 0.8 8 1.9 1.1 0.9 3 3.7 4.4 6.3 1.8 3.4 3.1 4.6 4.7 4.6 1.3-0.1 3.8 0.7 5.5 1.6 1.8 0.9 3.4 1.6 3.5 1.7 0.2 0.1 0.7 1.9 1.2 4.1 0.7 3.1 0.5 5-0.8 8.2-0.9 2.4-2.6 4.7-3.9 5.3-1.2 0.6-2.2 1.5-2.2 2 0 0.6-0.6 1-1.3 1.1-0.6 0-1.9 0.6-2.7 1.3-0.8 0.8-3.8 1.9-6.5 2.6-2.8 0.6-6.8 1.6-9 2.1-2.2 0.6-6 1.5-8.5 2.1-2.5 0.6-10.2 1.2-30 1.8l0.5 2.8c0.3 1.5 1 6.1 1.5 10.2 0.6 4.2 0.7 9.3 0.4 11.5-0.3 2.2-1.1 5.3-1.7 6.8-0.7 1.5-2 2.7-3 2.7-0.9 0-3.8-1.6-6.5-3.6-4.2-3.2-5.2-3.5-9.2-3.1-3.1 0.4-5 1.3-6.2 2.9-1 1.3-1.8 4.1-1.8 6.3 0 2.3 0.9 5.4 2 7.3 1.1 1.8 3 3.8 4.2 4.4 1.3 0.7 4.3 1.5 11.3 2.3l0.2 5.8c0.2 3.1 0.2 5.7 0 5.8-0.1 0-1.3-0.6-2.7-1.3-1.4-0.7-4.3-2.6-6.5-4.3-2.2-1.6-4.6-3.5-5.3-4.2-0.6-0.7-1.2-1.6-1.2-2 0.1-0.4-0.7-1.4-1.6-2.3-0.9-0.8-2.2-2.8-2.9-4.5-0.7-1.6-1.9-4.8-2.6-7-0.6-2.2-1.5-4.4-1.9-5-0.4-0.5-1.5-3.7-2.5-7-1.5-4.8-1.7-7.8-1.2-15.7 0.5-6.3 0.3-10.6-0.4-12-0.8-1.7-0.8-3.1 0.2-5.3 0.6-1.6 2.2-4.3 3.4-6 1.4-2 3.7-3.4 6.8-4.2 3.2-0.9 4.8-1.9 5.3-3.5 0.4-1.3 2.4-4 4.3-6.2 2-2.1 6.3-5.1 9.6-6.7 5.6-2.6 6.8-2.8 27.6-2.4l3.6-3.9c2-2.1 4.5-4.3 5.7-4.7 1.1-0.5 4.9-0.7 8.2-0.6zm16.5 46.2c0.5 0.6 0.9 1.3 0.9 1.5 0 0.3-1.8 1.1-4 1.8-2.2 0.7-4.7 1.2-5.5 1.2-0.8 0-1.5-0.4-1.5-1 0-0.5 0.6-1.3 1.2-1.7 0.7-0.4 2.8-1.2 4.7-1.8 2.3-0.8 3.6-0.8 4.2 0zm-274.4 6.6c4 0 9.7 0.4 12.5 1 2.9 0.7 5.9 1.7 6.7 2.3 0.8 0.6 5.1 1.4 9.5 1.7 5.7 0.4 9 1.2 11.1 2.6 1.6 1.1 3.8 2.3 4.7 2.7 1 0.3 3.1 3 4.8 5.9 2.5 4.5 2.9 6.3 3 13.2 0 6.6-0.3 8.5-2 10.8-1.8 2.5-2.2 2.6-3.8 1.3-0.9-0.9-3.2-1.5-5-1.5-2.2-0.1-3.2-0.6-3.2-1.6 0-0.8 0.7-1.7 1.5-2 0.8-0.2 2.4-0.5 3.5-0.5 1.1 0 2-0.3 2-0.7 0-0.4-1.4-2.1-3.2-3.8-1.8-1.7-5.9-5.1-9.1-7.5-3.5-2.7-6.1-4.1-6.6-3.5-0.4 0.6-1.3 3.3-2 6-0.7 2.8-2.4 7.1-3.8 9.5-1.5 2.5-6.5 8.5-11.2 13.4-4.7 4.8-10.5 10.1-12.9 11.7-2.3 1.6-4.8 2.9-5.5 2.9-0.6 0-3.1-1.8-5.5-4-2.3-2.2-5-4-6-4-0.9 0-3.2 0.9-5 2-2.1 1.3-3.6 3.3-4.3 5.8-0.9 2.9-0.8 4.7 0.2 8.1 0.8 2.5 2.6 5.5 4.1 6.8 1.6 1.3 4 2.6 5.5 2.9 1.6 0.4 4.1 0.9 5.7 1.3 2.6 0.6 3.1 1.3 4.2 6.1 0.7 3.1 1.3 10.8 1.3 17.3 0.1 10.8-0.1 12-2.4 15.7-1.4 2.2-3.7 4.8-5.2 5.8-2.3 1.4-5.1 1.7-15.8 1.7-11.1 0-13.7 0.3-17.5 2.1-2.8 1.3-5.1 1.8-6 1.3-0.8-0.4-3.9-1.8-6.9-3.1-3.4-1.4-7-4-9.5-6.8-2.3-2.5-4.5-6.1-4.9-8-0.4-1.9-0.7-6.1-0.7-9.2 0-3.2 0.7-7.9 1.6-10.5 0.9-2.6 3-6.8 4.7-9.3 1.6-2.4 4.7-6.3 6.7-8.5 2.1-2.2 4.8-5.7 5.9-7.7 1.2-2.1 3-7.1 4.1-11.3 1.1-4.1 2-8.7 2-10.2 0-1.5 0.7-5 1.5-7.8 0.9-2.7 3.2-8.3 5.3-12.4 2.6-5.2 5.6-9.1 10.2-13.5 3.6-3.3 9.2-7.4 12.5-9 3.3-1.6 8.2-3.5 11-4.1 2.7-0.7 8.3-1.3 12.2-1.4zm390 42.9c0.7 0 1.3 0.7 1.3 1.5 0 0.9-2.3 3.1-10 8.5l2 3.3c1.3 2.2 2 5 2 8.7 0 3.6-0.8 7.1-2.3 10.3-1.4 2.9-2.9 4.7-4 4.7-0.9 0-1.7-0.6-1.7-1.5 0-0.8 1.1-3.9 2.5-7 1.4-3 2.5-6.3 2.5-7.2 0-1-0.9-3.2-2-5-1.1-1.8-2.6-3.1-3.3-2.9-0.6 0.3-1.9 0.1-2.7-0.4-1.3-0.7-1.2-1.1 0.5-3 1.1-1.2 4.7-3.9 8-6.1 3.3-2.1 6.6-3.9 7.2-3.9zm-153.7 24c1.1 0 3.7 0.7 5.7 1.6 2.1 0.8 5.1 1.4 6.8 1.4 1.8 0 5.4-0.5 5.3 0.7 0 1-0.4 3.2-0.8 4.8-0.3 1.9-0.8 2.6-1.3 1.8-0.4-0.7-1.8-1.3-3.2-1.3-1.4 0-4.4-0.9-6.8-2.1-2.3-1.2-5-2.8-6-3.7-1-0.9-1.8-2-1.7-2.4 0-0.4 0.9-0.8 2-0.8zm-182.3 2c0.2 0 1.2 2.6 2.1 5.8 0.9 3.1 3.2 8.2 5 11.2 1.9 3.1 4 7.1 4.8 9 1.1 2.9 1.2 5.2 0.4 12-0.7 5.7-1.8 9.8-3.4 12.5-1.3 2.2-3.7 5.6-5.2 7.4-1.6 1.9-4.1 4-5.7 4.8-2 1-2.6 1.9-2.2 3.3 0.3 1.1 0.2 2-0.3 2.1-0.4 0-1.6-1-2.7-2.2-1.1-1.2-4-3.1-6.5-4.2-2.5-1.1-7.7-2.5-18.5-4.3l-0.3-4.7c-0.2-4.7-0.2-4.7-6.5-7.8-3.4-1.7-7-3.8-8-4.7-1-0.9-1.8-2.5-1.7-3.4 0-1 0.2-1.8 0.5-1.8 0.3 0 2.5 0.9 5 2 3.5 1.6 6.7 2 14 2 7.4 0 10.3-0.4 13.2-1.9 2.1-1 5-3.2 6.5-4.7 1.5-1.6 3.9-5.6 5.4-8.9 2.1-4.5 2.8-8 3.2-14.7 0.2-4.8 0.6-8.8 0.9-8.8zm151.6 10.2c1.2 0 2.2 0.7 2.3 1.4 0 0.8 2.2 3.2 4.9 5.4 2.6 2.3 6.5 4.9 8.7 5.9 2.2 1.1 6.7 2.5 10 3.2 4.7 1 7.1 1 11.3 0.1 2.8-0.7 6.3-2 7.7-2.9 1.7-1.2 2.9-3.4 3.7-6.8 0.6-2.7 1.2-5.3 1.4-5.7 0.2-0.5 1-0.4 1.7 0.1 0.6 0.4 3.5 0.7 6.2 0.6 2.8-0.1 6.7 0.7 7.4 0.9 1.5 0.4 1.6 0.1 4.1 0.7 3.6 0.7 5.5 1.6 6.1 1.8 1.7 0.6 2.8 1 3.9 1.4 1.4 0.7 2.7 0.5 4.3 1.7 1.5 1.1 3.4 1.8 4.2 1.5 0.8-0.3 2.1 0.2 2.8 1.2 0.6 0.9 2.6 2.2 4.2 3 1.6 0.8 4.1 2.1 5.5 2.8 1.4 0.8 3.4 2.4 4.2 3 0.9 0.7 1.1 1 2.6 1.9 1 0.6 2.4 2.2 3.7 3.1 1.8 1.2 1.1 0.5 2.5 2 0.4 0.5 2 0.8 3.3 2.5 1.2 1.6 3.2 2.8 4 3.5 0.9 0.8 1.6 1.6 2.6 2.8 0.8 1 2.2 3.4 4 5 1.7 1.5 3.8 2.7 4.6 2.7 0.8 0 1.1-0.5 1.5-1.2 0.3-0.7 1.4-2.5 3-6 1.3-2.9 2.7-5.5 3-6.5 0.3-1 0.9-2.1 1.5-3.8 0.5-1.3 1.1-2.5 1.5-3.5 0.3-0.8 0.8-1.6 2-4.2 0.7-1.8 1.9-3.5 1.8-4.4-0.2-0.9 0.5-2.1 1.4-2.8 1.4-0.9 2-0.8 3 0.5 0.7 0.8 8.5 3.9 17.3 6.8 8.8 2.9 16.9 6 18 6.7 2 1.5 1.9 1.6-1.8 12.2-2.2 5.9-6.2 17.3-9 25.4-2.9 8.1-5.6 15.1-6.2 15.7-0.6 0.6-5.1 1.5-10 2.1-4.9 0.6-17.1 1.9-27 3-9.9 1.1-22.1 2.5-27.2 3.2-9 1.3-9.2 1.3-11.5-0.9-1.3-1.3-2.6-2.3-3-2.3-0.5 0-0.7 1.9-0.5 4.3 0.2 4 0.1 4.2-2.8 4.5-1.6 0.2-5.4 1.3-8.4 2.5-3.7 1.5-7 4-10.5 7.7-2.8 3.1-6.3 7.8-7.7 10.5-1.5 2.8-3.7 5.6-5 6.2-1.3 0.7-4 1.3-5.9 1.2-2 0-4.1 0.7-5 1.7-1.3 1.4-1.3 2.9-0.2 11.8 0.7 5.5 1.6 12.4 2 15.1 0.6 4.3 1 5 3.2 5.3 1.4 0.2 4.5-0.2 7-0.8 2.5-0.7 5.9-1.8 7.5-2.5 1.6-0.8 4.4-2.8 6-4.5 1.6-1.8 4.8-4.3 7-5.6 3.4-2.1 4.8-2.4 15-1.2l0.5 65.8h-201c-177.3 0-201.2-0.2-202.5-1.5-0.8-0.8-1.5-1.7-1.5-2 0-0.3 0.2-1.2 0.5-2 0.3-1 1.9-1.5 5-1.5 3.1 0 4.7-0.5 5-1.5 0.3-0.8 1.5-1.5 2.8-1.5 1.2 0 3.9 0.6 6 1.5 2 0.8 3.7 1.8 3.7 2.3 0 0.4 21.2 0.8 47 1 30.8 0.1 47-0.1 47-0.8 0-0.6-1.5-1.6-3.3-2.4-1.7-0.8-3.9-2.1-4.7-3-1.3-1.5-1.3-1.7 0.5-1.7 1.1 0.1 4 1.1 6.5 2.3 2.5 1.3 5.6 3.1 7 4.1 1.4 0.9 4.2 1.7 6.3 1.7 2 0 3.7-0.4 3.7-1 0-0.6-1.9-2.3-4.2-3.8-2.4-1.5-6.9-4.4-10.1-6.2-3.1-1.9-5.7-3.8-5.7-4.2 0-0.5 0.7-0.8 1.5-0.8 0.8 0 5.2 2.3 9.8 5.1 4.5 2.8 9.5 6.3 11 7.7 2.7 2.6 3.2 2.7 12 2.3 5.1-0.1 9.3-0.7 9.5-1.2 0.1-0.5 23.7-0.9 107.2-0.9v-4.6c0.1-2.4 0.1-2.7 0.1-4.1 0-9 0.2-2.6 0.2-9.1 0-4.5 0.1-3.8 0.2-7.1 0-1.5 0.1-0.7 0.1-1.1 0-0.4 0.4-1.7-0.8-2.7-1.5-1.2-4-2.1-5-2.4-1.3-0.3-0.6-0.1-2.4-0.5-0.5-0.1-1.5-0.8-2.9-1.5-2.2-1-2.7-1.3-3.7-1.9-0.9-0.6-2.8-1.3-5-4.2-1.8-2.4-3.4-5.5-3.9-6.3-0.5-0.7-0.9-2.3-1.1-3.6-0.4-2.9-0.3-2.6-0.3-3.3-0.3-2.2-0.2-1.6-0.2-4.1 0-2.5 0.1-5.9 0.2-7.3 0.5-4.9 0.2-1.4 0.4-4.4 0.1-1.2 0.2-3.3 0.7-6.7 0.4-2.7 2.1-7.7 3-11.6 0.9-3.9 1.8-8.1 1.9-9.5 0.1-1.4 0.4-2.9 0.7-3.5 0.3-0.6 2.4-10.4 4.7-22 2.4-11.6 4.7-22.1 5.3-23.5 0.6-1.4 1.1-3.7 1.5-4.7 0.5-0.9 1.3-2.2 1.3-3.3 0-1.1 0.8-3.5 1.9-5.2 1-1.8 2.9-5.2 4.2-7.4 1.3-2.3 6.2-7.7 10.9-11.9 4.7-4.3 8.8-8.7 9.5-9.1 1.3-0.9 1.8-1.3 2.7-1.7 1.5-0.6 1.9-1.1 3.9-2 2.7-1.1 4.5-1.9 5.4-2.3 3.8-1.7 1.3-0.7 3-1.2 2.6-0.7 0.9-0.3 2.8-0.7 0.9-0.3 2.3-0.7 4.5-0.9 1.6-0.2 3.7-1.4 4.8-1.4zm-65.9 14.2l3.3 3.1c3 2.8 3.3 3.5 3.3 8.8 0 5.1-0.4 6.1-3.3 9.3-1.7 1.9-3.8 3.5-4.5 3.5-0.6-0.1-1.4 0.4-1.7 0.9-0.3 0.6 0.1 1.9 0.7 3q1.3 2 0.3 3.1c-0.7 0.8-1.7 0.2-3.3-2-1.2-1.7-2-3.7-1.7-4.6 0.3-0.8 1.3-1.8 2.2-2.1 1-0.4 3-1.8 4.6-3.3 1.5-1.4 2.7-3.4 2.7-4.3 0-1-0.3-1.8-0.8-1.8-0.4 0.1-3 1.4-5.7 3-2.8 1.7-5.6 3-6.3 3-0.6 0-1.2-0.3-1.2-0.7-0.1-0.4 3.1-2.9 7-5.5 3.8-2.6 6.8-5.3 6.6-6-0.2-0.7-1.1-1.7-2-2.3-1.2-0.7-3.2-0.2-7.9 2.3-3.4 1.8-6.5 3.2-7 3.2-0.4 0-0.7-0.6-0.7-1.5 0-0.8 3.2-3.1 7.7-5.3zm-88.1 77.9c0.7 0.2 1.5 1.1 1.8 1.8 0.4 0.8 1.3 4.6 1.9 8.4 0.7 4.2 1 10.9 0.7 16.5-0.4 5.2-1.1 11.8-1.8 14.5-0.6 2.8-1.2 6.5-1.3 8.3-0.1 1.8-0.3 3.2-0.6 3.2-0.3 0-1.2-0.4-2-1-1.1-0.6-1.5-2.4-1.3-6.2 0.1-2.9 0.6-6.5 1.2-8 0.6-1.5 1.1-7.7 1.1-13.8 0-6-0.5-13.1-1.2-15.7-0.6-2.6-0.8-5.6-0.4-6.6 0.4-1 1.3-1.6 1.9-1.4zm740.4 44.8c0.7-0.1 2.5 0 3.2-0.2 1.9-0.4-2.8 3.7-4.1 5.9-1 1.9-8.1 4.2-9 4.2-1.4-0.1-1.6-2.8 2.8-3.2 1.3-0.2 1.8-3.3 3.2-4.5 1.5-1.2 3.2-2.2 3.9-2.2zm-779.2 38.9c1.4 0 6.7 2.9 12.2 6.6 5.4 3.5 9.8 7.1 9.8 8 0 0.8-0.5 1.5-1 1.5-0.6 0.1-6.1-3.2-12.3-7.2-6.1-4.1-11.2-7.7-11.2-8.1 0-0.4 1.1-0.8 2.5-0.8z"/>
		<path id="Path 6" class="s6" d="m834.6 106.3c-1.2 1.2-2.6 3.8-3.1 5.7-0.6 2.1-0.7 14.4-0.4 31 0.6 26.9 0.6 27.6 2.9 30.3l2.3 2.7h76.5c-1.2-10.4-1.5-26.6-1.5-42.7v-29.3h-74.7zm-240.7 81.9c-5.5 0.4-26.7 1.1-47 1.4-25.2 0.4-38 1-39.9 1.8-1.6 0.6-3.5 2.4-4.3 3.9-0.9 1.9-1.3 6.8-1.3 15.8 0 12.3 0.1 13 2 13 1.1 0 2.1-0.5 2.3-1 0.1-0.6 1.6-1 3.2-1 1.6 0 3.5 0.5 4.2 1.2 0.7 0.7 1.3 3.1 1.3 5.3 0 2.2-0.6 4.7-1.3 5.6-0.7 0.9-2.7 2.5-4.5 3.7l-3.2 2.2c0.4 16.5 0.7 17.4 3 19.1 2 1.5 4.6 1.9 15 2 6.8 0 26.6-0.4 44-1 17.3-0.6 34.6-1.3 38.5-1.6 5.8-0.5 7.4-1 9.5-3.1 2.5-2.6 2.5-2.6 1.7-15.2-0.4-7-1.1-19.9-1.7-28.7-0.5-8.8-1.3-17.1-1.8-18.5-0.5-1.4-1.6-3.1-2.4-3.7-0.7-0.7-2.7-1.4-4.3-1.6-1.7-0.3-7.5-0.1-13 0.4zm241.2 3.9c-1.2 0.9-2.8 3.7-3.6 6.1-1 3.4-1.1 9.7-0.6 28.9 0.5 17.4 1.1 25.3 2.1 27.2 0.8 1.5 2.4 3.4 3.6 4.2 1.9 1.2 8.6 1.5 38.8 1.6l36.5 0.1c0-7.1-0.1-22.7-0.3-39.4l-0.2-30.2c-70.6-0.3-74.2-0.1-76.3 1.5zm0 84.6c-1.7 1.8-3 4.4-3.3 6.9-0.3 2.2-0.7 14.6-0.8 27.5-0.1 20.9 0.1 23.9 1.6 26.3 1 1.5 2.9 3.1 4.3 3.7 1.5 0.6 16.3 0.9 38.7 0.7l36.3-0.2 0.5-67-74.5-0.7zm-302.8 66.4c-3.5 0.4-10.3 1.3-15 1.9-4.6 0.6-11.6 1.3-15.5 1.5-3.8 0.3-8.8 0.9-11 1.4-2.2 0.5-9.4 1.4-16 2.1-6.6 0.6-13 1.6-14.2 2.1-1.3 0.5-4.6 0.9-7.6 0.9-2.9 0-5.7 0.4-6.2 0.9-0.5 0.5-5.5 1.2-11 1.5-5.5 0.3-11.9 0.8-14.2 1.1-3.4 0.4-4.3 0.9-4.3 2.5 0 1.3 1.1 2.4 2.8 3.1 1.5 0.6 5 2.7 7.7 4.7 2.7 2.1 5.9 5.4 7.2 7.5 1.3 2 2.3 4.7 2.3 6 0 1.2-0.9 3.7-2 5.5-1.6 2.7-2 5-2 14 0 7.3 0.4 11.1 1.3 12 0.8 0.8 1.3 4.4 1.3 9.5 0.1 4.5 0.6 9.2 1.3 10.5 0.6 1.2 1.1 4.7 1.1 7.7 0 4.4 0.5 6.1 2.5 8.5 2.4 2.8 3 3 9.5 3 3.9 0 12.3-0.7 18.8-1.5 6.4-0.9 18.3-2.4 26.2-3.5 8-1 23.5-3.1 34.5-4.5 11-1.4 21.4-2.7 23-3 1.7-0.2 4.3-1.3 5.8-2.4 2.7-2 2.7-2.3 2.7-12.3 0-5.7-0.4-13.9-1-18.3-0.5-4.4-1.4-12.5-1.9-18-0.6-5.5-1.5-15.2-2.1-21.5-0.6-6.3-1.5-13.2-2-15.2-0.6-2.2-2.2-4.9-4-6.3-2.2-1.9-4-2.5-7.2-2.4-2.4 0.1-7.2 0.5-10.8 1z"/>
		<path id="Path 6 copy" class="s6" d="m833.6 106.3c-1.2 1.2-2.6 3.8-3.1 5.7-0.6 2.1-0.7 14.4-0.4 31 0.6 26.9 0.6 27.6 2.9 30.3l2.3 2.7h76.5c-1.2-10.4-1.5-26.6-1.5-42.7v-29.3h-74.7zm-240.7 81.9c-5.5 0.4-26.7 1.1-47 1.4-25.2 0.4-38 1-39.9 1.8-1.6 0.6-3.5 2.4-4.3 3.9-0.9 1.9-1.3 6.8-1.3 15.8 0 12.3 0.1 13 2 13 1.1 0 2.1-0.5 2.3-1 0.1-0.6 1.6-1 3.2-1 1.6 0 3.5 0.5 4.2 1.2 0.7 0.7 1.3 3.1 1.3 5.3 0 2.2-0.6 4.7-1.3 5.6-0.7 0.9-2.7 2.5-4.5 3.7l-3.2 2.2c0.4 16.5 0.7 17.4 3 19.1 2 1.5 4.6 1.9 15 2 6.8 0 26.6-0.4 44-1 17.3-0.6 34.6-1.3 38.5-1.6 5.8-0.5 7.4-1 9.5-3.1 2.5-2.6 2.5-2.6 1.7-15.2-0.4-7-1.1-19.9-1.7-28.7-0.5-8.8-1.3-17.1-1.8-18.5-0.5-1.4-1.6-3.1-2.4-3.7-0.7-0.7-2.7-1.4-4.3-1.6-1.7-0.3-7.5-0.1-13 0.4zm241.2 3.9c-1.2 0.9-2.8 3.7-3.6 6.1-1 3.4-1.1 9.7-0.6 28.9 0.5 17.4 1.1 25.3 2.1 27.2 0.8 1.5 2.4 3.4 3.6 4.2 1.9 1.2 8.6 1.5 38.8 1.6l36.5 0.1c0-7.1-0.1-22.7-0.3-39.4l-0.2-30.2c-70.6-0.3-74.2-0.1-76.3 1.5zm0 84.6c-1.7 1.8-3 4.4-3.3 6.9-0.3 2.2-0.7 14.6-0.8 27.5-0.1 20.9 0.1 23.9 1.6 26.3 1 1.5 2.9 3.1 4.3 3.7 1.5 0.6 16.3 0.9 38.7 0.7l36.3-0.2 0.5-67-74.5-0.7zm-302.8 66.4c-3.5 0.4-10.3 1.3-15 1.9-4.6 0.6-11.6 1.3-15.5 1.5-3.8 0.3-8.8 0.9-11 1.4-2.2 0.5-9.4 1.4-16 2.1-6.6 0.6-13 1.6-14.2 2.1-1.3 0.5-4.6 0.9-7.6 0.9-2.9 0-5.7 0.4-6.2 0.9-0.5 0.5-5.5 1.2-11 1.5-5.5 0.3-11.9 0.8-14.2 1.1-3.4 0.4-4.3 0.9-4.3 2.5 0 1.3 1.1 2.4 2.8 3.1 1.5 0.6 5 2.7 7.7 4.7 2.7 2.1 5.9 5.4 7.2 7.5 1.3 2 2.3 4.7 2.3 6 0 1.2-0.9 3.7-2 5.5-1.6 2.7-2 5-2 14 0 7.3 0.4 11.1 1.3 12 0.8 0.8 1.3 4.4 1.3 9.5 0.1 4.5 0.6 9.2 1.3 10.5 0.6 1.2 1.1 4.7 1.1 7.7 0 4.4 0.5 6.1 2.5 8.5 2.4 2.8 3 3 9.5 3 3.9 0 12.3-0.7 18.8-1.5 6.4-0.9 18.3-2.4 26.2-3.5 8-1 23.5-3.1 34.5-4.5 11-1.4 21.4-2.7 23-3 1.7-0.2 4.3-1.3 5.8-2.4 2.7-2 2.7-2.3 2.7-12.3 0-5.7-0.4-13.9-1-18.3-0.5-4.4-1.4-12.5-1.9-18-0.6-5.5-1.5-15.2-2.1-21.5-0.6-6.3-1.5-13.2-2-15.2-0.6-2.2-2.2-4.9-4-6.3-2.2-1.9-4-2.5-7.2-2.4-2.4 0.1-7.2 0.5-10.8 1z"/>
		<path id="Path 6 copy 2" class="s6" d="m833.6 106.3c-1.2 1.2-2.6 3.8-3.1 5.7-0.6 2.1-0.7 14.4-0.4 31 0.6 26.9 0.6 27.6 2.9 30.3l2.3 2.7h76.5c-1.2-10.4-1.5-26.6-1.5-42.7v-29.3h-74.7zm-240.7 81.9c-5.5 0.4-26.7 1.1-47 1.4-25.2 0.4-38 1-39.9 1.8-1.6 0.6-3.5 2.4-4.3 3.9-0.9 1.9-1.3 6.8-1.3 15.8 0 12.3 0.1 13 2 13 1.1 0 2.1-0.5 2.3-1 0.1-0.6 1.6-1 3.2-1 1.6 0 3.5 0.5 4.2 1.2 0.7 0.7 1.3 3.1 1.3 5.3 0 2.2-0.6 4.7-1.3 5.6-0.7 0.9-2.7 2.5-4.5 3.7l-3.2 2.2c0.4 16.5 0.7 17.4 3 19.1 2 1.5 4.6 1.9 15 2 6.8 0 26.6-0.4 44-1 17.3-0.6 34.6-1.3 38.5-1.6 5.8-0.5 7.4-1 9.5-3.1 2.5-2.6 2.5-2.6 1.7-15.2-0.4-7-1.1-19.9-1.7-28.7-0.5-8.8-1.3-17.1-1.8-18.5-0.5-1.4-1.6-3.1-2.4-3.7-0.7-0.7-2.7-1.4-4.3-1.6-1.7-0.3-7.5-0.1-13 0.4zm241.2 3.9c-1.2 0.9-2.8 3.7-3.6 6.1-1 3.4-1.1 9.7-0.6 28.9 0.5 17.4 1.1 25.3 2.1 27.2 0.8 1.5 2.4 3.4 3.6 4.2 1.9 1.2 8.6 1.5 38.8 1.6l36.5 0.1c0-7.1-0.1-22.7-0.3-39.4l-0.2-30.2c-70.6-0.3-74.2-0.1-76.3 1.5zm0 84.6c-1.7 1.8-3 4.4-3.3 6.9-0.3 2.2-0.7 14.6-0.8 27.5-0.1 20.9 0.1 23.9 1.6 26.3 1 1.5 2.9 3.1 4.3 3.7 1.5 0.6 16.3 0.9 38.7 0.7l36.3-0.2 0.5-67-74.5-0.7zm-302.8 66.4c-3.5 0.4-10.3 1.3-15 1.9-4.6 0.6-11.6 1.3-15.5 1.5-3.8 0.3-8.8 0.9-11 1.4-2.2 0.5-9.4 1.4-16 2.1-6.6 0.6-13 1.6-14.2 2.1-1.3 0.5-4.6 0.9-7.6 0.9-2.9 0-5.7 0.4-6.2 0.9-0.5 0.5-5.5 1.2-11 1.5-5.5 0.3-11.9 0.8-14.2 1.1-3.4 0.4-4.3 0.9-4.3 2.5 0 1.3 1.1 2.4 2.8 3.1 1.5 0.6 5 2.7 7.7 4.7 2.7 2.1 5.9 5.4 7.2 7.5 1.3 2 2.3 4.7 2.3 6 0 1.2-0.9 3.7-2 5.5-1.6 2.7-2 5-2 14 0 7.3 0.4 11.1 1.3 12 0.8 0.8 1.3 4.4 1.3 9.5 0.1 4.5 0.6 9.2 1.3 10.5 0.6 1.2 1.1 4.7 1.1 7.7 0 4.4 0.5 6.1 2.5 8.5 2.4 2.8 3 3 9.5 3 3.9 0 12.3-0.7 18.8-1.5 6.4-0.9 18.3-2.4 26.2-3.5 8-1 23.5-3.1 34.5-4.5 11-1.4 21.4-2.7 23-3 1.7-0.2 4.3-1.3 5.8-2.4 2.7-2 2.7-2.3 2.7-12.3 0-5.7-0.4-13.9-1-18.3-0.5-4.4-1.4-12.5-1.9-18-0.6-5.5-1.5-15.2-2.1-21.5-0.6-6.3-1.5-13.2-2-15.2-0.6-2.2-2.2-4.9-4-6.3-2.2-1.9-4-2.5-7.2-2.4-2.4 0.1-7.2 0.5-10.8 1z"/>
		<path id="Path 8" class="s2" d="m759.9 46c-0.4 1.3-0.1 2 0.7 2 0.7 0 1.8-0.5 2.5-1.2 0.7-0.7 1.2-1.6 1.2-2 0-0.4-0.9-0.8-1.9-0.8-1.1 0-2.2 0.9-2.5 2zm14.4-0.5c0 0.9-0.5 1.5-1 1.5-0.6 0-0.8 0.5-0.5 1 0.3 0.6 1.6 1 3 1 1.5 0 2.5-0.5 2.5-1.5 0-0.8 0.7-1.5 1.5-1.5 0.8 0 1.5-0.4 1.5-1 0-0.5-1.6-1-3.5-1-2.5 0-3.5 0.5-3.5 1.5zm15 0c0 0.9-0.7 1.5-1.5 1.5-0.8 0-1.3 0.5-1 1 0.3 0.6 1.6 1 3 1 1.5 0 2.5-0.5 2.5-1.5 0-0.8 0.7-1.5 1.5-1.5 0.8 0 1.5-0.4 1.5-1 0-0.5-1.4-1-3-1q-3 0-3 1.5zm-207.5 173.6c-5 0.4-12.4 0.7-16.5 0.8-5.8 0-7.9 0.5-9.2 1.8-1 1-1.8 3-1.8 4.3 0 1.4 0.7 3.3 1.7 4.3 1.5 1.6 2.8 1.8 8.3 1.3 3.6-0.4 12.1-0.9 19-1.2 7-0.3 13.1-1.1 13.8-1.7 0.7-0.7 1.3-2.7 1.3-4.7-0.1-1.9-0.6-4-1.3-4.7-0.7-0.7-2.4-1.2-3.8-1.1-1.4 0.1-6.6 0.5-11.5 0.9zm-48.3 99.9c-1.8 1.2-3.4 3.1-3.7 4.5-0.3 1.4-0.1 3.1 0.4 3.8 0.5 0.7 3.3 1.5 6.2 1.9 3 0.4 7.5 1.7 10.1 2.8 2.7 1.1 6.4 3.5 8.4 5.3 2 1.8 4.9 5 6.4 7.2 1.5 2.2 3.4 6.7 4.2 10 1.3 5.4 1.8 6.1 4.1 6.3 2.4 0.2 2.7-0.1 2.7-2.8 0-1.6-0.8-5.6-1.7-8.7-0.9-3.2-1.6-6.9-1.5-8.3 0.1-1.3 0.3-4 0.4-6 0.3-3.1 0-3.5-2.2-3.4-1.4 0-3.5 0.4-4.8 0.7-1.9 0.6-2.8-0.1-6-5-2.7-4-5.2-6.5-8.3-8-2.4-1.2-6-2.2-7.9-2.3-1.9 0-5 0.9-6.8 2zm-48.2 60.1c-4.7 0.4-13 1.2-18.5 1.7-5.5 0.5-11 1.5-12.3 2.1-1.4 0.7-2.2 2.1-2.3 3.9 0 1.5 0.8 3.4 1.7 4.2 1.4 1.3 3.5 1.4 11.8 0.8 5.5-0.3 16.8-1.4 25.1-2.2 8.2-0.9 16-2.1 17.2-2.6 1.6-0.7 2.3-1.8 2.3-3.7 0-1.5-0.5-3.3-1.2-4-0.9-0.9-3.8-1.2-8.3-1.1-3.9 0-10.8 0.5-15.5 0.9zm39.9 26.5c-0.3 0.3-5.4 1-11.5 1.5-6 0.5-15.2 1.3-20.4 1.9-5.2 0.5-11.1 1.3-13 1.8-2.9 0.7-3.6 1.3-3.8 3.8-0.2 1.8 0.3 3.5 1.3 4.4 1.5 1.3 3.2 1.4 13.9 0.2 6.6-0.7 16.4-1.7 21.6-2.2 5.2-0.6 13.2-1.3 17.8-1.7 5.3-0.5 8.9-1.3 9.8-2.3 0.8-0.8 1.3-2.8 1.2-4.5l-0.3-3c-12.5-0.4-16.3-0.3-16.6 0.1z"/>
		<path id="Path 9" class="s4" d="m867.2 135.8l-8.9 8.7c-5.7-5.8-7.2-6.5-9.5-6.3-2.3 0.3-3.1 0.9-3.3 2.6-0.1 1.4 1.4 4.1 4.2 7.5 2.5 2.9 5.6 5.9 7.1 6.7 2.5 1.5 2.6 1.4 14-10 7-6.9 11.5-12.3 11.5-13.5 0-1.1-0.5-2.5-1.2-3.2-0.7-0.7-2.2-1.3-3.2-1.3-1 0-5.9 4-10.7 8.8zm7.6 79.1c-1.7 1.1-5.7 4.7-9 8-3.3 3.4-6.5 6.2-7 6.2-0.6 0-2.6-1.6-4.5-3.6-1.9-1.9-4.2-3.5-5.1-3.5-0.8 0-2.1 0.6-2.7 1.3-0.7 0.7-1.2 2.1-1.2 3.2 0 1.1 2.6 4.6 5.8 7.8 3.9 3.9 6.5 5.7 8.2 5.7 1.8 0 5.2-2.7 12.7-10.2 6.9-6.9 10.3-11 10.3-12.5 0-1.3-0.9-2.7-2-3.3-1.1-0.5-2.1-1-2.3-1-0.1 0-1.6 0.9-3.2 1.9zm-352.9 2.4c-3.4 2.8-3.9 3.9-4.3 8.7-0.4 4-0.1 6.3 1.1 8.5 0.9 1.7 3.1 4 4.9 5.3 2.3 1.5 4.6 2.2 8.2 2.2 3.8 0 5.8-0.6 8.2-2.5 1.8-1.4 4-3.8 4.8-5.5 0.8-1.6 1.5-4 1.5-5.2 0-1.3-0.6-4-1.5-6-0.8-2.1-3-4.9-4.8-6.2-2.5-2-4.4-2.5-8.8-2.5-4.8-0.1-6 0.3-9.3 3.2zm345.9 83.7c-4.4 4.4-8.5 8.1-9 8.1-0.6 0-2.1-1.2-3.5-2.6-1.4-1.5-3.3-3.1-4.3-3.6-1.2-0.6-2.3-0.4-3.7 0.9-1.2 0.9-2.1 2.5-2 3.5 0 0.9 2.7 4.4 6 7.7 3.3 3.3 6.8 6 7.7 6 1 0.1 6.8-5 13-11.2 6.2-6.2 11.2-11.6 11.3-12 0-0.4-0.5-1.7-1-2.8-0.6-1.3-2-2-3.8-2-2.1 0-4.6 1.9-10.7 8z"/>
		<path id="Path 10" class="s5" d="m362.3 192.6c-1.9 1.4-3.3 3.2-3.2 4 0.1 0.8 0.4 1.4 0.7 1.4 0.3 0 1.7-0.8 3.2-1.8 1.6-1 3.6-2.1 4.5-2.5 1-0.4 1.8-1.3 1.8-2.2 0-0.8-0.8-1.5-1.8-1.5-0.9 0-3.3 1.2-5.2 2.6zm27.3 10.6c0.1 2.2 0.7 3.3 1.7 3.3q1.5 0 1.5-3c0-2-0.6-3.1-1.7-3.3-1.4-0.3-1.7 0.3-1.5 3zm-24.1 3.6c0.2 1.6 0.9 2.7 1.8 2.7 0.9 0 1.5-1 1.6-2.7 0.1-2.1-0.3-2.8-1.8-2.8-1.5 0-1.9 0.6-1.6 2.8zm15.9 2.6c-0.1 0.9 1.2 3.7 2.9 6.1 1.6 2.5 3 5 3 5.5 0 0.6-1.6 2-3.5 3.3-1.9 1.2-3.5 2.8-3.5 3.5 0 0.7 0.4 1.2 1 1.2 0.5 0 2.5-0.6 4.2-1.4 2-0.9 3.8-2.7 4.5-4.5 1.2-2.9 1-3.5-2.5-8.7-2-3.1-4.2-5.9-4.8-6.1-0.7-0.2-1.2 0.3-1.3 1.1zm-237.3 22c-1.4 0.6-4 2.4-5.7 3.9-1.7 1.5-3.1 3.2-3.1 3.7 0 0.6 0.4 1 1 1 0.5 0 3.5-1.7 6.5-3.7 3.1-2.1 5.6-4.1 5.6-4.5 0.1-0.3-0.3-0.8-0.8-1.1-0.5-0.2-2.1 0.1-3.5 0.7zm222.4 6.3c0.1 1 1.9 2.8 3.8 4.1 1.9 1.2 4.6 2.3 6 2.3 1.4-0.1 3.1-0.6 3.8-1.3 0.7-0.7 1.2-1.8 1.2-2.5 0-0.8-1.4-1.3-3.8-1.3-2 0-5.1-0.7-6.7-1.5-1.7-0.8-3.4-1.5-3.8-1.5-0.5 0-0.7 0.8-0.5 1.7zm-205.2 5.8c0 0.9 0.2 2.2 0.5 3 0.3 0.9 1.2 1.5 2 1.5 0.8 0 1.7-0.4 2-1 0.3-0.5 0.3-1.9 0-3-0.3-1.1-1.3-2-2.5-2-1.1 0-2 0.7-2 1.5zm-20 5.5c0 1.1 0.7 2.4 1.5 2.8 0.9 0.4 2 0.3 2.6-0.3 0.5-0.5 0.7-1.8 0.4-2.7-0.3-1-1.4-1.8-2.5-1.8q-2 0-2 2zm16 0.5c0 0.9 1.1 3 2.5 4.8 1.3 1.8 2.4 4.2 2.5 5.5 0 1.2-0.7 2.5-1.5 2.7-0.8 0.3-1.5 1.2-1.5 2 0 0.9 0.6 1.5 1.2 1.6 0.7 0 2.3-1 3.5-2.3 1.2-1.2 2.3-2.9 2.3-3.8 0-0.8-1.5-3.8-3.3-6.7-1.8-2.9-3.8-5.3-4.5-5.3-0.7 0-1.2 0.7-1.2 1.5zm-14 25.5c0 0.6 0.8 1.8 1.7 2.7 1 0.8 3.4 2.2 5.3 3 2.9 1.2 3.9 1.2 5.8 0.1 1.2-0.7 2.2-1.8 2.2-2.5 0-0.8-2.1-1.5-5.5-1.9-3-0.3-5.7-1-6-1.5-0.3-0.5-1.2-0.9-2-0.9-0.8 0-1.5 0.5-1.5 1zm262.6 96.9c-0.3 0.6-0.4 1.6-0.1 2.1 0.3 0.6 1.1 1 1.7 1.1 0.7 0 6.4 2.4 12.5 5.5 6.2 3 11.7 5.4 12.3 5.4 0.5 0 0.9-0.8 0.7-1.7-0.1-1.1-4-3.7-10.7-7-5.8-2.9-11.7-5.5-13.1-5.8-1.5-0.4-2.9-0.2-3.3 0.4zm-332.4 2.9c-0.5 0.9-2.3 5.3-4 9.7-1.6 4.4-3.4 8.9-3.8 10-0.4 1.1-1.2 3.9-1.8 6.3-0.9 3.5-0.9 4.2 0.3 4 0.8-0.2 2.2-2.3 3.1-4.8 0.9-2.4 2-5.4 2.4-6.5 0.4-1.1 2.1-5.3 3.7-9.5 1.6-4.1 2.9-8.3 2.9-9.2 0-1-0.4-1.8-1-1.8-0.5 0-1.3 0.8-1.8 1.8zm122.9 13c-3 8.2-4 12-3.2 12.7 0.6 0.6 1.3 0.8 1.6 0.5 0.2-0.2 2.3-5.2 4.5-11 2.2-5.7 4-11.3 4-12.2 0-1-0.6-1.8-1.3-1.8-0.8 0-3.1 4.9-5.6 11.8zm205.3-4.5c-0.4 0.7 0.1 1.8 1.2 2.5 1 0.7 2.7 1.3 3.6 1.2 1 0 2 0.5 2.3 1 0.3 0.6 1.2 1 2 1 0.8 0 5.3 1.9 10 4.3 4.7 2.3 8.9 3.9 9.3 3.5 0.4-0.4 0.4-1.4-0.1-2.3-0.4-0.8-4.2-3.1-8.5-5.1-4.2-2-10.2-4.5-13.2-5.5-3-1-5.6-1.9-5.7-1.9-0.1 0-0.5 0.6-0.9 1.3zm-1.9 9.7c-0.3 0.6-0.3 1.5 0 2 0.3 0.6 3.5 2.4 7.2 4.1 3.8 1.7 8.1 3.8 9.8 4.6 1.6 0.8 3.8 1.3 4.7 0.9 1-0.3 1.6-1.1 1.3-1.8-0.3-0.7-3.3-2.7-6.7-4.4-3.5-1.8-8.1-3.9-10.3-4.8-2.2-0.9-4.3-1.6-4.7-1.6-0.4 0-1 0.5-1.3 1zm-353.3 32.7c-2.9 0.2-4.2 0.8-4.2 1.8 0 0.9 0.9 1.5 2 1.5 1.1 0 2.2 0.5 2.5 1 0.3 0.6 1.3 1 2.2 1 1 0 4.7 0.9 8.3 2 3.6 1.1 8.3 2.6 10.5 3.2 2.2 0.6 7.8 2.4 12.5 4 4.7 1.5 9.7 2.8 11.2 2.8 1.8 0 2.7-0.4 2.5-1.2-0.2-0.7-3.5-2.3-7.3-3.6-3.8-1.3-9.8-3.2-13.4-4.3-3.6-1.1-7.2-2.6-8-3.4-0.9-0.8-3.5-1.4-6.3-1.4-3.6-0.1-5-0.5-6-2.1-0.6-1.1-1.4-1.9-1.7-1.8-0.3 0.1-2.4 0.3-4.8 0.5z"/>
		<path id="Path 10 copy" class="s5" d="m362.3 192.6c-1.9 1.4-3.3 3.2-3.2 4 0.1 0.8 0.4 1.4 0.7 1.4 0.3 0 1.7-0.8 3.2-1.8 1.6-1 3.6-2.1 4.5-2.5 1-0.4 1.8-1.3 1.8-2.2 0-0.8-0.8-1.5-1.8-1.5-0.9 0-3.3 1.2-5.2 2.6zm27.3 10.6c0.1 2.2 0.7 3.3 1.7 3.3q1.5 0 1.5-3c0-2-0.6-3.1-1.7-3.3-1.4-0.3-1.7 0.3-1.5 3zm-24.1 3.6c0.2 1.6 0.9 2.7 1.8 2.7 0.9 0 1.5-1 1.6-2.7 0.1-2.1-0.3-2.8-1.8-2.8-1.5 0-1.9 0.6-1.6 2.8zm15.9 2.6c-0.1 0.9 1.2 3.7 2.9 6.1 1.6 2.5 3 5 3 5.5 0 0.6-1.6 2-3.5 3.3-1.9 1.2-3.5 2.8-3.5 3.5 0 0.7 0.4 1.2 1 1.2 0.5 0 2.5-0.6 4.2-1.4 2-0.9 3.8-2.7 4.5-4.5 1.2-2.9 1-3.5-2.5-8.7-2-3.1-4.2-5.9-4.8-6.1-0.7-0.2-1.2 0.3-1.3 1.1zm-237.3 22c-1.4 0.6-4 2.4-5.7 3.9-1.7 1.5-3.1 3.2-3.1 3.7 0 0.6 0.4 1 1 1 0.5 0 3.5-1.7 6.5-3.7 3.1-2.1 5.6-4.1 5.6-4.5 0.1-0.3-0.3-0.8-0.8-1.1-0.5-0.2-2.1 0.1-3.5 0.7zm222.4 6.3c0.1 1 1.9 2.8 3.8 4.1 1.9 1.2 4.6 2.3 6 2.3 1.4-0.1 3.1-0.6 3.8-1.3 0.7-0.7 1.2-1.8 1.2-2.5 0-0.8-1.4-1.3-3.8-1.3-2 0-5.1-0.7-6.7-1.5-1.7-0.8-3.4-1.5-3.8-1.5-0.5 0-0.7 0.8-0.5 1.7zm-205.2 5.8c0 0.9 0.2 2.2 0.5 3 0.3 0.9 1.2 1.5 2 1.5 0.8 0 1.7-0.4 2-1 0.3-0.5 0.3-1.9 0-3-0.3-1.1-1.3-2-2.5-2-1.1 0-2 0.7-2 1.5zm-20 5.5c0 1.1 0.7 2.4 1.5 2.8 0.9 0.4 2 0.3 2.6-0.3 0.5-0.5 0.7-1.8 0.4-2.7-0.3-1-1.4-1.8-2.5-1.8q-2 0-2 2zm16 0.5c0 0.9 1.1 3 2.5 4.8 1.3 1.8 2.4 4.2 2.5 5.5 0 1.2-0.7 2.5-1.5 2.7-0.8 0.3-1.5 1.2-1.5 2 0 0.9 0.6 1.5 1.2 1.6 0.7 0 2.3-1 3.5-2.3 1.2-1.2 2.3-2.9 2.3-3.8 0-0.8-1.5-3.8-3.3-6.7-1.8-2.9-3.8-5.3-4.5-5.3-0.7 0-1.2 0.7-1.2 1.5zm-14 25.5c0 0.6 0.8 1.8 1.7 2.7 1 0.8 3.4 2.2 5.3 3 2.9 1.2 3.9 1.2 5.8 0.1 1.2-0.7 2.2-1.8 2.2-2.5 0-0.8-2.4-1.2-6.7-1.4-2-0.1-4.4-1.5-4.8-2-0.3-0.4-1.2-0.9-2-0.9-0.8 0-1.5 0.5-1.5 1zm262.6 96.9c-0.3 0.6-0.4 1.6-0.1 2.1 0.3 0.6 1.1 1 1.7 1.1 0.7 0 6.4 2.4 12.5 5.5 6.2 3 11.7 5.4 12.3 5.4 0.5 0 0.9-0.8 0.7-1.7-0.1-1.1-4-3.7-10.7-7-5.8-2.9-11.7-5.5-13.1-5.8-1.5-0.4-2.9-0.2-3.3 0.4zm-332.4 2.9c-0.5 0.9-2.3 5.3-4 9.7-1.6 4.4-3.4 8.9-3.8 10-0.4 1.1-1.6 3.9-1.8 6.3-0.9 7.1-2.6 23.1 1.5 4.4 0.5-2.4 0.1-0.4 1.9-5.2 0.9-2.4 2-5.4 2.4-6.5 0.4-1.1 2.1-5.3 3.7-9.5 1.6-4.1 2.9-8.3 2.9-9.2 0-1-0.4-1.8-1-1.8-0.5 0-1.3 0.8-1.8 1.8zm122.9 13c-3 8.2-4 12-3.2 12.7 0.6 0.6 1.3 0.8 1.6 0.5 0.2-0.2 2.3-5.2 4.5-11 2.2-5.7 4.5-11.9 4.5-12.9 0.8-8.1 0.8-8.2-1.8-1.1-0.3 0.7-3.1 4.9-5.6 11.8zm205.3-4.5c-0.4 0.7 0.1 1.8 1.2 2.5 1 0.7 2.7 1.3 3.6 1.2 1 0 2 0.5 2.3 1 0.3 0.6 1.2 1 2 1 0.8 0 5.3 1.9 10 4.3 4.7 2.3 8.9 3.9 9.3 3.5 0.4-0.4 0.4-1.4-0.1-2.3-0.4-0.8-4.2-3.1-8.5-5.1-4.2-2-10.2-4.5-13.2-5.5-3-1-5.6-1.9-5.7-1.9-0.1 0-0.5 0.6-0.9 1.3zm-1.9 9.7c-0.3 0.6-0.3 1.5 0 2 0.3 0.6 3.5 2.4 7.2 4.1 3.8 1.7 8.1 3.8 9.8 4.6 1.6 0.8 3.8 1.3 4.7 0.9 1-0.3 1.6-1.1 1.3-1.8-0.3-0.7-3.3-2.7-6.7-4.4-3.5-1.8-8.1-3.9-10.3-4.8-2.2-0.9-4.3-1.6-4.7-1.6-0.4 0-1 0.5-1.3 1zm-353.3 32.7c-2.9 0.2-4.2 0.8-4.2 1.8 0 0.9 0.9 1.5 2 1.5 1.1 0 2.2 0.5 2.5 1 0.3 0.6 1.3 1 2.2 1 1 0 4.7 0.9 8.3 2 3.6 1.1 8.3 2.6 10.5 3.2 2.2 0.6 7.8 2.4 12.5 4 4.7 1.5 9.7 2.8 11.2 2.8 1.8 0 2.7-0.4 2.5-1.2-0.2-0.7-3.5-2.3-7.3-3.6-3.8-1.3-9.8-3.2-13.4-4.3-3.6-1.1-7.2-2.6-8-3.4-0.9-0.8-3.5-1.4-6.3-1.4-3.6-0.1-5-0.5-6-2.1-0.6-1.1-1.4-1.9-1.7-1.8-0.3 0.1-2.4 0.3-4.8 0.5z"/>
		<path id="Path 11" class="s6" d="m567.8 37.7c-0.5 0.4-0.8 3.7-0.7 7.5l0.2 6.8c7.7 0 11.3-0.6 13-1.5 2.5-1.2 3-2 3-5.2 0-2.1-0.4-4.3-0.8-4.9-0.4-0.7-1.9-1.7-3.5-2.3-1.5-0.6-4.4-1.1-6.5-1.1-2.1 0-4.2 0.3-4.7 0.7zm-34.5 1.8q0 1.5 3 1.5c3 0 3 0.1 3 5.5 0 5.2 0.1 5.5 2.5 5.5 2.3 0 2.5-0.3 2.5-5 0-4.9 0.1-5 3-5 2.3 0 3-0.4 3-2 0-1.8-0.7-2-8.5-2-6.9 0-8.5 0.3-8.5 1.5zm133 0c0 0.9 0.7 1.5 1.5 1.5 1 0 1.5 1.1 1.5 3.5 0 2.5-0.5 3.5-1.5 3.5-0.8 0-1.5 0.9-1.5 2 0 1.8 0.7 2 5.5 2 4.8 0 5.5-0.2 5.5-2 0-1.1-0.7-2-1.5-2-1.1 0-1.5-1-1.5-3.5 0-2.4 0.4-3.5 1.5-3.5 0.8 0 1.5-0.6 1.5-1.5 0-1.1-1.3-1.5-5.5-1.5-4.2 0-5.5 0.4-5.5 1.5zm31 5.5c0 6.8 0.1 7 2.5 7 1.5 0 2.5-0.5 2.5-1.5q0-1.5 4.2-2.1c2.4-0.3 4.9-1.1 5.6-1.7 0.7-0.7 1.3-2.3 1.3-3.7-0.1-1.3-0.6-3-1.3-3.7-0.8-0.8-3.9-1.3-8.1-1.3h-6.7zm140.2-6.4c-2 0.4-2.2 1-2.2 7.4v7c9 0.1 11.3-0.5 13.2-1.9 1.9-1.4 2.8-3 2.8-4.8 0.1-1.5-0.7-3.8-1.7-5-1.2-1.4-3.2-2.4-5.8-2.7-2.2-0.2-5-0.2-6.3 0zm-286.7 3.8c-1.1 0.7-2 2.4-2 3.7 0.1 1.3 0.7 3.2 1.5 4.2 0.9 1.1 2.8 1.8 5 1.8 2 0 4.2-0.8 5.2-1.8 1-1 1.8-2.6 1.8-3.5 0-1-0.9-2.7-2-3.8-1.1-1.1-3.3-2-4.8-2-1.5 0-3.6 0.6-4.7 1.4zm36.6 0.2c-1.5 1-2.3 2.4-2.2 4 0 1.3 0.8 3.1 1.6 3.9 0.8 0.9 2.8 1.5 4.5 1.5 1.6 0 3.9-0.4 5-1 1.2-0.6 2-2 2-3.7 0-1.5-0.7-3.5-1.7-4.5-1-0.9-2.9-1.7-4.3-1.8-1.4 0-3.6 0.7-4.9 1.6zm91.9 3.9c0 5.2 0.1 5.5 2.5 5.5 2.2 0 2.5-0.4 2.5-3.5 0-2.4 0.4-3.5 1.5-3.5 1 0 1.5 1.1 1.5 3.5 0 2.9 0.4 3.5 2 3.5 1.7 0 2-0.6 2-5 0-4.2-0.3-5.1-2.1-5.5-1.2-0.3-3-0.1-4 0.5-1.2 0.7-1.9 0.7-1.9 0 0-0.5-0.9-1-2-1-1.8 0-2 0.7-2 5.5zm36 0c0 4.9 0.2 5.5 2 5.5 1.5 0 2-0.7 2.2-3.2 0.2-2.6 0.8-3.3 2.5-3.5q2.3-0.3 2.3-2.3c0-1.1-0.6-2-1.3-2-0.7 0-1.9 0.6-2.5 1.3-1 1-1.2 1-1.2 0 0-0.7-0.9-1.3-2-1.3-1.8 0-2 0.7-2 5.5zm12.6-4.4c-1.4 0.7-1.9 2-1.8 4.2 0.1 1.8 0.7 3.8 1.4 4.5 0.7 0.7 2.9 1.3 4.8 1.3 2.1 0 4.2-0.7 5.2-1.8 1-1 1.8-2.8 1.8-4 0-1.3-1-2.9-2.3-3.8-1.2-0.8-3.3-1.5-4.7-1.4-1.4 0-3.4 0.4-4.4 1zm14.2 0.3c-0.6 0.6-1.1 2.5-1 4.3 0.1 2.4 0.9 3.7 2.6 4.6 2.1 1 2.8 1 4.2-0.3 1.5-1.3 1.7-1.3 1.2 0-0.3 1-1.7 1.5-3.8 1.5-2.1 0-3.5 0.6-3.8 1.5-0.2 0.9 0.2 1.9 0.9 2.3 0.8 0.4 2.7 0.7 4.4 0.7 1.8 0.1 3.8-0.7 5-2.1 1.4-1.4 2.1-3.8 2.3-7.7l0.4-5.7c-8.6-0.1-11.7 0.3-12.4 0.9zm15.3 0.2c-1.4 0.9-2.3 2.5-2.3 3.7 0.1 1.2 0.9 3 1.9 4 1 0.9 3.4 1.7 5.3 1.7 2 0.1 4.1-0.6 5-1.5 1.3-1.4 1.3-1.6 0-1.7-0.8 0-2.6-0.1-4-0.2-1.4 0-2.6-0.4-2.8-0.8-0.1-0.4-0.2-1.4-0.2-2.3 0-0.8 0.9-1.5 2-1.5q2 0 1.5 1.5c-0.4 1.1 0.2 1.5 2 1.5 1.8 0 2.5-0.5 2.5-2 0-1.1-0.9-2.4-2-3-1.1-0.5-3-1-4.3-1-1.2 0-3.3 0.7-4.6 1.6zm14-0.1c-0.6 0.9-0.9 2.2-0.6 3 0.3 0.9 1.2 1.5 2 1.5 0.8 0 1.5-0.6 1.5-1.5 0-1.1 1.1-1.5 4-1.5 2.2 0 4-0.4 4-1 0-0.5-0.7-1.2-1.5-1.5-0.8-0.2-3-0.5-4.9-0.5-1.9 0-3.9 0.7-4.5 1.5zm14.5-0.3c-1.2 0.9-1.7 1.9-1.3 3.1 0.4 0.9 1.6 1.7 2.7 1.7 1.1 0 2-0.6 2-1.5 0-1 1-1.5 3.5-1.5 2.3 0 3.4-0.4 3.2-1.2-0.2-0.7-2.1-1.4-4.3-1.6-2.1-0.1-4.8 0.3-5.8 1zm69 0.9c-1.4 0.7-1.9 2-1.8 4.2 0.1 1.8 0.7 3.8 1.4 4.5 0.7 0.7 2.9 1.3 4.8 1.3 2.1 0 4.2-0.7 5.2-1.8 1-1 1.8-2.8 1.8-4 0-1.3-1-2.9-2.3-3.8-1.2-0.8-3.3-1.5-4.7-1.4-1.4 0-3.4 0.4-4.4 1zm13.4 2.9c0 2.2-0.2 4.7-0.5 5.5-0.4 1.1 0.2 1.5 2 1.5 2.1 0 2.5-0.5 2.7-3.1 0.2-1.8 0.9-3.4 1.5-3.5 0.9-0.3 1.3 0.8 1.3 3.1 0 3.1 0.3 3.5 2.5 3.5 2.2 0 2.5-0.4 2.5-3.5 0-1.9-0.5-4.4-1-5.5-0.6-1.1-1.8-2-2.8-2-1 0-2.3 0.6-2.9 1.3-0.9 1-1.2 1-1.7 0-0.3-0.7-1.3-1.3-2.1-1.3-1.1 0-1.5 1.1-1.5 4zm15.1-2.4c-1.4 0.9-2.3 2.5-2.3 3.7 0.1 1.2 0.9 3 1.9 4 1 0.9 3.4 1.7 5.3 1.7 2 0.1 4-0.5 4.7-1.4 1-1.3 1-1.6 0-2-0.6-0.2-2.4-0.2-4 0-1.5 0.3-2.7 0-2.7-0.6 0-0.5 1.8-1 4-1 3.3 0 4-0.3 4-2 0-1.1-0.9-2.4-2-3-1.1-0.5-3-1-4.3-1-1.2 0-3.3 0.7-4.6 1.6zm-105.1 4.2c0 1.5-0.5 1.6-3.6 1-2.3-0.4-4-0.2-4.3 0.4-0.3 0.6 0.1 1.4 0.9 1.9 0.8 0.5 3.1 0.9 5 0.9 2 0 4.1-0.5 4.8-1.2 0.7-0.7 1.2-2.1 1.2-3 0-1.1-0.8-1.8-2-1.8-1.3 0-2 0.7-2 1.8zm14.1-0.1c-0.1 1.6-0.6 1.7-3.7 1.1-2.3-0.4-4-0.2-4.3 0.4-0.3 0.6 0.1 1.4 0.9 1.9 0.8 0.5 3.1 0.9 5.2 0.9 2 0 4.4-0.6 5.2-1.5 0.9-0.8 1.4-2 1.3-2.7-0.2-0.7-1.3-1.4-2.5-1.6-1.4-0.2-2.1 0.2-2.1 1.5zm-281.8 56.1c-1.2 0.2-2.9 1.1-3.7 2-1.2 1.4-1.5 7.8-1.8 36.3-0.3 30.2-0.1 34.8 1.3 37 0.9 1.4 3 2.7 5 3.1 1.9 0.4 27.2 0.8 56.4 0.9 29.1 0.2 54.1-0.1 55.5-0.4 1.4-0.4 3-1.5 3.6-2.5 0.8-1.1 1.3-12.4 1.5-36.2 0.2-28.4 0-34.9-1.2-36.8-0.8-1.2-2.3-2.4-3.4-2.7-1.1-0.2-26.5-0.5-56.5-0.7-30-0.1-55.5-0.1-56.7 0zm158-0.1c-1.8 0.2-4.2 1.7-5.7 3.4l-2.6 2.9c0 52.5 0.4 61 1.3 62.1 0.6 0.9 2.2 2.1 3.4 2.8 1.7 0.8 18.8 1.1 62.8 1.1 49.2 0 61-0.2 63.2-1.3 1.6-0.8 3.6-2.6 4.5-4 1.6-2.4 1.8-6 2-32.1l0.3-29.5-5-5c-93.8-0.7-122.4-0.7-124.2-0.4zm-3.8 90.7l-3 2.4c-1.4 47.3-1.3 51.8 0 54.7 0.8 2 2.5 4.2 3.7 4.9 1.9 1.2 12.5 1.6 56.4 2.3 29.8 0.5 57.8 0.6 62.2 0.3 7.2-0.4 8.5-0.8 10.9-3.2l2.8-2.8c-0.4-47.3-0.8-54.7-1.9-56.7-0.7-1.5-2.1-3.1-3-3.5-0.9-0.4-29.4-0.8-63.4-0.8h-61.7z"/>
		<path id="Path 12" class="s2" d="m528.8 130.7c-0.5 0.4-0.8 1.6-0.7 2.7 0 1.2 0.9 2.8 1.8 3.6 1.4 1.3 7.4 1.5 39.8 1.5h38.1c0.4-4.6 0-6.6-0.7-7.3-1-1-9.5-1.3-39.4-1.2-20.9 0-38.4 0.3-38.9 0.7zm193.9 8.6c-0.3 0.7-0.4 2.6-0.2 4.2 0.3 2.6 0.8 3.1 4.3 3.7 2.2 0.4 14.1 0.7 26.5 0.8 16.8 0 22.9-0.3 23.8-1.2 0.7-0.7 1.2-2.4 1.2-3.8 0-1.3-0.5-3-1.2-3.7-1-1-7.7-1.3-27.6-1.3-20 0-26.4 0.3-26.8 1.3zm-199.9 13.4c-0.5 0.4-0.8 2.2-0.7 4q0.2 3.3 2.2 4.3c1.2 0.6 12 1 26 1 14 0 24.8-0.4 26-1 1.3-0.6 2-2 2-3.7 0-1.5-0.5-3.3-1.2-4-1-1-7.7-1.3-27.4-1.3-14.3 0-26.4 0.3-26.9 0.7zm163.4 58.7c-1.4 0.6-3.4 1.8-4.4 2.6-1 0.9-2.6 3.2-3.6 5.3-1.1 2-1.9 5.1-1.9 6.7 0 1.7 0.8 4.7 1.9 6.8 1 2 2.7 4.5 3.7 5.4 1.1 0.9 3.9 2.2 6.4 2.9 4.1 1.1 4.9 1 9.4-1.2 2.7-1.3 5.8-3.7 7-5.4 1.2-1.7 2.2-5.1 2.4-8 0.2-3.5-0.2-6-1.6-8.5-1.1-1.9-3.7-4.5-5.8-5.7-2.2-1.2-5.5-2.2-7.4-2.2-1.9 0.1-4.7 0.6-6.1 1.3zm34.6 9.3c-0.5 0.4-0.8 2.2-0.7 4 0.2 2.5 0.8 3.6 2.7 4.3 1.4 0.6 13.6 1 28.8 1 19.7 0 26.6-0.3 27.5-1.2 0.7-0.7 1.2-2.4 1.2-3.8 0-1.3-0.5-3-1.2-3.7-1-1-8-1.3-29.4-1.3-15.4 0-28.4 0.3-28.9 0.7z"/>
		<path id="Path 13" class="s4" d="m553.8 44.7c-0.5 0.4-0.8 1.5-0.7 2.5 0.1 1.1 1 1.8 2.2 1.8 1.1 0 2.2-0.4 2.5-1 0.3-0.5-0.1-1.7-0.8-2.5-0.6-0.9-1.5-1.5-1.8-1.5-0.3 0-0.9 0.3-1.4 0.7zm191.7 0.9c-0.4 0.8-0.2 2 0.5 2.7 1 1 1.6 1 2.5 0 0.8-0.7 1-1.9 0.5-2.7-0.4-0.9-1.2-1.6-1.7-1.6-0.6 0-1.4 0.7-1.8 1.6zm112.1 0.9c-0.5 1-0.3 2.1 0.4 2.8 0.7 0.7 1.9 0.9 2.8 0.5 0.8-0.4 1.4-1.6 1.2-2.5-0.1-1-1-1.9-1.9-2.1-0.9-0.2-2.1 0.4-2.5 1.3zm-174.8 76.7c-1.1 0.6-3.3 2.3-4.8 3.7-1.6 1.5-3.5 4.2-4.3 6.1-0.8 2-1.4 4.9-1.4 6.5 0 1.7 0.8 4.8 1.8 7 1 2.2 3.4 5.2 5.3 6.7 1.8 1.4 5 3.2 6.9 3.9 2.9 1.1 4.3 1 8-0.1 2.5-0.7 5.7-2.2 7.2-3.2 1.6-1 3.7-3.6 4.8-5.8 1.2-2.4 2-6 2-9.2 0-4.4-0.5-6-3.2-9.7-1.8-2.4-4.5-5-6.1-5.7-1.5-0.8-5.3-1.4-8.5-1.3-3.1 0-6.6 0.5-7.7 1.1z"/>
		<path id="Path 14" class="s5" d="m572.8 41.7c-0.5 0.4-0.8 1.9-0.7 3.5 0.2 2.4 0.6 2.8 2.9 2.6 2.1-0.2 2.9-0.9 3.1-2.8 0.2-1.3-0.3-2.8-1-3.2-0.7-0.4-1.8-0.7-2.4-0.8-0.6 0-1.4 0.3-1.9 0.7zm267.6 3.8c-0.1 2.7 0.3 3.5 1.6 3.6 1 0 2.5-0.7 3.3-1.6 1.1-1.3 1.2-2 0.4-3.3-0.6-0.9-2-1.8-3.2-2-1.7-0.3-2.1 0.2-2.1 3.3zm-250.2 0c-1.1 1.3-1.1 1.9-0.2 2.8 0.7 0.7 1.9 0.9 2.8 0.5 0.8-0.4 1.4-1.5 1.2-2.4-0.1-1-0.7-1.9-1.3-2.1-0.6-0.2-1.7 0.4-2.5 1.2zm140.6 0c-0.3 0.9-0.3 2 0 2.5 0.3 0.6 1.2 1 2 1 0.8 0 1.7-0.5 1.9-1.2 0.3-0.7-0.1-1.8-0.7-2.5-0.7-0.7-1.6-1.3-2-1.3-0.4 0-1 0.7-1.2 1.5z"/>
		<path id="Path 15" class="s6" d="m693.1 136c-3.5 3.3-6.9 6-7.6 6-0.6 0-1.7-0.9-2.2-2-0.6-1.2-2-2-3.5-2-1.4 0-2.5 0.4-2.5 0.8 0 0.4 1.8 2.6 4 5 2.2 2.3 4.5 4.2 5.1 4.2 0.7 0 4.5-3.3 8.5-7.5 4.1-4.1 7.4-8.1 7.4-9 0-0.8-0.7-1.5-1.5-1.5-0.8 0-4.3 2.7-7.7 6z"/>
	</g>
	<path id="Shape 1" fill-rule="evenodd" class="s7" d="m908.3 6v65h-416v-65z"/>
	<path id="Shape 2" fill-rule="evenodd" class="s7" d="m368.1 212c-1.7 0.2-3.3-1.8-3.8-4.5-0.4-2.7 0.6-5.2 2.2-5.4 1.7-0.3 3.3 1.7 3.8 4.5 0.4 2.7-0.6 5.1-2.2 5.4z"/>
	<path id="Shape 2 copy" fill-rule="evenodd" class="s7" d="m392.1 208c-1.7 0.2-3.3-1.8-3.8-4.5-0.4-2.7 0.6-5.2 2.2-5.4 1.7-0.3 3.3 1.7 3.8 4.5 0.4 2.7-0.6 5.1-2.2 5.4z"/>
	<path id="Shape 2 copy 2" fill-rule="evenodd" class="s7" d="m144.1 252.4c-1.2 0.2-2.4-1.3-2.7-3.4-0.3-2 0.4-3.8 1.6-4 1.2-0.1 2.4 1.3 2.8 3.4 0.3 2-0.5 3.8-1.7 4z"/>
	<path id="Shape 2 copy 3" fill-rule="evenodd" class="s7" d="m164.1 248.4c-1.2 0.2-2.4-1.3-2.7-3.4-0.3-2 0.4-3.8 1.6-4 1.2-0.1 2.4 1.3 2.8 3.4 0.3 2-0.5 3.8-1.7 4z"/>
</svg>